<?xml version="1.0" encoding="UTF-8" standalone="no"?>
<!DOCTYPE svg PUBLIC "-//W3C//DTD SVG 1.1//EN"
"http://www.w3.org/Graphics/SVG/1.1/DTD/svg11.dtd">


<!-- Page 1 -->
<svg x="0" y="0" width="619" height="350" viewBox="0 0 619 350" version="1.1" xmlns="http://www.w3.org/2000/svg" xmlns:xlink="http://www.w3.org/1999/xlink"
style="display: block;margin-left: auto;margin-right: auto;">
<defs>

<style type="text/css"><![CDATA[

.g1_1{
fill: none;
stroke: #000000;
stroke-width: 0.15277778;
stroke-linecap: butt;
stroke-linejoin: miter;
stroke-miterlimit: 3;
stroke-dasharray: 1,2;
}
.g2_1{
fill: none;
stroke: #000000;
stroke-width: 0.5729167;
stroke-linecap: butt;
stroke-linejoin: miter;
stroke-miterlimit: 3;
}
.g3_1{
fill: none;
stroke: #E31A1C;
stroke-width: 2.2916667;
stroke-linecap: butt;
stroke-linejoin: miter;
stroke-miterlimit: 3;
}
.g4_1{
fill: none;
stroke: #387DB8;
stroke-width: 2.2916667;
stroke-linecap: butt;
stroke-linejoin: miter;
stroke-miterlimit: 3;
}

.s1_1{
font-size: 12.18px;
font-family: LMRoman8-Regular_k;
fill: TRANSPARENT;
}
.s2_1{
font-size: 9.13px;
font-family: LMMathSymbols6-Regular_l;
fill: TRANSPARENT;
}
.s3_1{
font-size: 9.13px;
font-family: LMRoman6-Regular_m;
fill: TRANSPARENT;
}
.s4_1{
font-size: 12.18px;
font-family: LMMathSymbols8-Regular_n;
fill: TRANSPARENT;
}
.s5_1{
font-size: 12.18px;
font-family: LMRoman8-Regular_o;
fill: TRANSPARENT;
}
.s6_1{
font-size: 9.13px;
font-family: LMRoman6-Regular_p;
fill: TRANSPARENT;
}
.s7_1{
font-size: 12.18px;
font-family: LMMathItalic8-Regular_q;
fill: TRANSPARENT;
}
text::-moz-selection {
	color: transparent;
	background: rgba(0, 106, 173, 0.4);
}
text::selection {
	color: transparent;
	background: rgba(0, 106, 173, 0.4);
}

]]></style>

</defs>
<path d="M0,0
L0,324
L619,324
L619,0 Z "
fill="#FFFFFF" stroke="none" />
<g fill="#000000" >
<use xlink:href="#f0_k" transform="matrix(8,0,0,8,91.6,294)" />
<use xlink:href="#f0_10" transform="matrix(8,0,0,8,98.1,294)" />
<use xlink:href="#f1_1" transform="matrix(6,0,0,6,104.6,289.7)" />
</g>
<text
x="91"
y="293"
dx="0,0"
class="s1_1"
>10</text>

<g fill="#000000" >
<use xlink:href="#f2_1" transform="matrix(6,0,0,6,113.4,289.7)" />
</g>
<text
x="104"
y="289"
dx="0"
class="s2_1"
>-</text>

<g fill="#000000" >
<use xlink:href="#f0_k" transform="matrix(8,0,0,8,91.6,239.8)" />
</g>
<text
x="113"
y="289"
dx="0"
class="s3_1"
>4</text>

<g fill="#000000" >
<use xlink:href="#f0_10" transform="matrix(8,0,0,8,98.1,239.8)" />
<use xlink:href="#f1_1" transform="matrix(6,0,0,6,104.6,235.5)" />
</g>
<text
x="91"
y="239"
dx="0,0"
class="s1_1"
>10</text>

<g fill="#000000" >
<use xlink:href="#f2_3" transform="matrix(6,0,0,6,113.4,235.5)" />
</g>
<text
x="104"
y="235"
dx="0"
class="s2_1"
>-</text>

<g fill="#000000" >
<use xlink:href="#f0_k" transform="matrix(8,0,0,8,91.6,185.6)" />
</g>
<text
x="113"
y="235"
dx="0"
class="s3_1"
>3</text>

<g fill="#000000" >
<use xlink:href="#f0_10" transform="matrix(8,0,0,8,98.1,185.6)" />
<use xlink:href="#f1_1" transform="matrix(6,0,0,6,104.6,181.3)" />
</g>
<text
x="91"
y="185"
dx="0,0"
class="s1_1"
>10</text>

<g fill="#000000" >
<use xlink:href="#f2_4" transform="matrix(6,0,0,6,113.4,181.3)" />
</g>
<text
x="104"
y="181"
dx="0"
class="s2_1"
>-</text>

<g fill="#000000" >
<use xlink:href="#f0_k" transform="matrix(8,0,0,8,91.6,131.5)" />
</g>
<text
x="113"
y="181"
dx="0"
class="s3_1"
>2</text>

<g fill="#000000" >
<use xlink:href="#f0_10" transform="matrix(8,0,0,8,98.1,131.5)" />
<use xlink:href="#f1_1" transform="matrix(6,0,0,6,104.6,127.2)" />
</g>
<text
x="91"
y="131"
dx="0,0"
class="s1_1"
>10</text>

<g fill="#000000" >
<use xlink:href="#f2_2" transform="matrix(6,0,0,6,113.4,127.2)" />
</g>
<text
x="104"
y="127"
dx="0"
class="s2_1"
>-</text>

<g fill="#000000" >
<use xlink:href="#f0_k" transform="matrix(8,0,0,8,100.4,77.3)" />
</g>
<text
x="113"
y="127"
dx="0"
class="s3_1"
>1</text>

<g fill="#000000" >
<use xlink:href="#f0_10" transform="matrix(8,0,0,8,106.9,77.3)" />
<use xlink:href="#f2_5" transform="matrix(6,0,0,6,113.4,73)" />
</g>
<text
x="100"
y="77"
dx="0,0"
class="s1_1"
>10</text>

<g fill="#000000" >
<use xlink:href="#f0_k" transform="matrix(8,0,0,8,100.4,23.2)" />
</g>
<text
x="113"
y="73"
dx="0"
class="s3_1"
>0</text>

<g fill="#000000" >
<use xlink:href="#f0_10" transform="matrix(8,0,0,8,106.9,23.2)" />
<use xlink:href="#f2_2" transform="matrix(6,0,0,6,113.4,18.9)" />
</g>
<text
x="100"
y="23"
dx="0,0"
class="s1_1"
>10</text>

<g fill="#000000" >
<use xlink:href="#f3_1" transform="matrix(8,0,0,8,118.3,310.7)" />
</g>
<text
x="113"
y="18"
dx="0"
class="s3_1"
>1</text>

<g fill="#000000" >
<use xlink:href="#f0_w" transform="matrix(8,0,0,8,128.3,310.7)" />
</g>
<text
x="118"
y="310"
dx="0"
class="s4_1"
>-</text>

<g fill="#000000" >
<use xlink:href="#f0_10" transform="matrix(8,0,0,8,134.8,310.7)" />
<use xlink:href="#f3_1" transform="matrix(8,0,0,8,208.3,310.7)" />
</g>
<text
x="128"
y="310"
dx="0,0"
class="s1_1"
>20</text>

<g fill="#000000" >
<use xlink:href="#f0_k" transform="matrix(8,0,0,8,218.4,310.7)" />
</g>
<text
x="208"
y="310"
dx="0"
class="s4_1"
>-</text>

<g fill="#000000" >
<use xlink:href="#f0_b" transform="matrix(8,0,0,8,224.9,310.7)" />
<use xlink:href="#f3_1" transform="matrix(8,0,0,8,298.4,310.7)" />
</g>
<text
x="218"
y="310"
dx="0,0"
class="s1_1"
>15</text>

<g fill="#000000" >
<use xlink:href="#f0_k" transform="matrix(8,0,0,8,308.5,310.7)" />
</g>
<text
x="298"
y="310"
dx="0"
class="s4_1"
>-</text>

<g fill="#000000" >
<use xlink:href="#f0_10" transform="matrix(8,0,0,8,314.9,310.7)" />
<use xlink:href="#f3_1" transform="matrix(8,0,0,8,391.7,310.7)" />
</g>
<text
x="308"
y="310"
dx="0,0"
class="s1_1"
>10</text>

<g fill="#000000" >
<use xlink:href="#f0_b" transform="matrix(8,0,0,8,401.8,310.7)" />
</g>
<text
x="391"
y="310"
dx="0"
class="s4_1"
>-</text>

<g fill="#000000" >
<use xlink:href="#f0_10" transform="matrix(8,0,0,8,486.8,310.7)" />
<use xlink:href="#f0_b" transform="matrix(8,0,0,8,576.9,310.7)" />
</g>
<text
x="401"
y="310"
dx="0"
class="s1_1"
>5</text>

<text
x="486"
y="310"
dx="0"
class="s1_1"
>0</text>

<text
x="576"
y="310"
dx="0"
class="s1_1"
>5</text>

<path d="M129.8,291l450.3,0" class="g1_1" />
<path d="M129.8,291l4.8,0m445.5,0l-4.8,0" class="g2_1" />
<path d="M129.8,274.8l2.4,0m447.9,0l-2.4,0M129.8,265.2l2.4,0m447.9,0l-2.4,0M129.8,258.4l2.4,0m447.9,0l-2.4,0M129.8,253.1l2.4,0m447.9,0l-2.4,0M129.8,248.9l2.4,0m447.9,0l-2.4,0M129.8,245.3l2.4,0m447.9,0l-2.4,0M129.8,242.1l2.4,0m447.9,0l-2.4,0M129.8,239.3l2.4,0m447.9,0l-2.4,0" class="g2_1" />
<path d="M129.8,236.9l10.1,0m287.1,0l153.1,0" class="g1_1" />
<path d="M129.8,236.9l4.8,0m445.5,0l-4.8,0" class="g2_1" />
<path d="M129.8,220.6l2.4,0m447.9,0l-2.4,0M129.8,211.1l2.4,0m447.9,0l-2.4,0M129.8,204.3l2.4,0m447.9,0l-2.4,0M129.8,199l2.4,0m447.9,0l-2.4,0M129.8,194.7l2.4,0m447.9,0l-2.4,0M129.8,191.1l2.4,0m447.9,0l-2.4,0M129.8,188l2.4,0m447.9,0l-2.4,0M129.8,185.2l2.4,0m447.9,0l-2.4,0" class="g2_1" />
<path d="M129.8,182.7l450.3,0" class="g1_1" />
<path d="M129.8,182.7l4.8,0m445.5,0l-4.8,0" class="g2_1" />
<path d="M129.8,166.4l2.4,0m447.9,0l-2.4,0M129.8,156.9l2.4,0m447.9,0l-2.4,0M129.8,150.1l2.4,0m447.9,0l-2.4,0M129.8,144.8l2.4,0m447.9,0l-2.4,0M129.8,140.5l2.4,0m447.9,0l-2.4,0M129.8,137l2.4,0m447.9,0l-2.4,0M129.8,133.8l2.4,0m447.9,0l-2.4,0M129.8,131l2.4,0m447.9,0l-2.4,0" class="g2_1" />
<path d="M129.8,128.6l450.3,0" class="g1_1" />
<path d="M129.8,128.6l4.8,0m445.5,0l-4.8,0" class="g2_1" />
<path d="M129.8,112.3l2.4,0m447.9,0l-2.4,0M129.8,102.7l2.4,0m447.9,0l-2.4,0M129.8,95.9l2.4,0m447.9,0l-2.4,0M129.8,90.7l2.4,0m447.9,0l-2.4,0M129.8,86.4l2.4,0m447.9,0l-2.4,0M129.8,82.8l2.4,0m447.9,0l-2.4,0M129.8,79.7l2.4,0m447.9,0l-2.4,0M129.8,76.8l2.4,0m447.9,0l-2.4,0" class="g2_1" />
<path d="M129.8,74.4l450.3,0" class="g1_1" />
<path d="M129.8,74.4l4.8,0m445.5,0l-4.8,0" class="g2_1" />
<path d="M129.8,58.1l2.4,0m447.9,0l-2.4,0M129.8,48.6l2.4,0m447.9,0l-2.4,0M129.8,41.8l2.4,0m447.9,0l-2.4,0M129.8,36.5l2.4,0m447.9,0l-2.4,0M129.8,32.2l2.4,0m447.9,0l-2.4,0M129.8,28.6l2.4,0m447.9,0l-2.4,0M129.8,25.5l2.4,0m447.9,0l-2.4,0M129.8,22.7l2.4,0m447.9,0l-2.4,0" class="g2_1" />
<path d="M129.8,20.2l450.3,0" class="g1_1" />
<path d="M129.8,20.2l4.8,0m445.5,0l-4.8,0" class="g2_1" />
<path d="M129.8,291l0,-270.8" class="g1_1" />
<path d="M129.8,291l0,-4.8m0,-266l0,4.8" class="g2_1" />
<path d="M219.8,291l0,-4.8m0,-67.2l0,-198.8" class="g1_1" />
<path d="M219.8,291l0,-4.8m0,-266l0,4.8" class="g2_1" />
<path d="M309.9,291l0,-4.8m0,-67.2l0,-198.8" class="g1_1" />
<path d="M309.9,291l0,-4.8m0,-266l0,4.8" class="g2_1" />
<path d="M400,291l0,-4.8M400,219L400,20.2" class="g1_1" />
<path d="M400,291l0,-4.8m0,-266l0,4.8" class="g2_1" />
<path d="M490,291L490,20.2" class="g1_1" />
<path d="M490,291l0,-4.8m0,-266l0,4.8" class="g2_1" />
<path d="M580.1,291l0,-270.8" class="g1_1" />
<path d="M580.1,291l0,-4.8m0,-266l0,4.8" class="g2_1" />
<path d="M129.8,291l450.3,0l0,-270.8l-450.3,0l0,270.8Z" class="g2_1" />
<path d="M150,269.4l45.1,0M129.8,74.6l72,0l18,0.1l18.1,0l18,0.1l18,0l18,0.1l18,0.3l18,0.3L346,76.4l17.9,2l18,4.4L400,91.7l18,15.4l18,22.4l18,30.1l18,37.5l18,48.3L504.7,291" class="g3_1" />
<path d="M150,235.8l45.1,0M129.8,75.2l18,0.1l18,0.2l18,0.3l18,0.4l18,0.4l18.1,0.5l18,0.9l18,1.1l18,1.5l18,2.1l18,3l18.1,4l17.9,5.9l18,8L400,114.3l18,14.9l18,20.4l18,26.2L472,213l18,46.6l9.5,31.4" class="g4_1" />
<path d="M129.8,291l450.3,0l0,-270.8l-450.3,0l0,270.8Z" class="g2_1" />
<g fill="#000000" >
<use xlink:href="#f4_3" transform="matrix(0,-8,8,0,63.8,199.7)" />
<use xlink:href="#f4_f" transform="matrix(0,-8,8,0,63.8,192.5)" />
<use xlink:href="#f4_j" transform="matrix(0,-8,8,0,63.8,188.9)" />
<use xlink:href="#f4_4" transform="matrix(0,-8,8,0,63.8,182.1)" />
<use xlink:href="#f4_d" transform="matrix(0,-8,8,0,63.8,176.7)" />
<use xlink:href="#f4_8" transform="matrix(0,-8,8,0,63.8,165.6)" />
<use xlink:href="#f4_p" transform="matrix(0,-8,8,0,63.8,159.8)" />
<use xlink:href="#f4_p" transform="matrix(0,-8,8,0,63.8,154.8)" />
<use xlink:href="#f4_j" transform="matrix(0,-8,8,0,63.8,149.7)" />
<use xlink:href="#f4_p" transform="matrix(0,-8,8,0,63.8,143.3)" />
<use xlink:href="#f4_p" transform="matrix(0,-8,8,0,63.8,133.9)" />
<use xlink:href="#f4_1" transform="matrix(0,-8,8,0,63.8,128.9)" />
<use xlink:href="#f4_v" transform="matrix(0,-8,8,0,63.8,122.4)" />
<use xlink:href="#f4_8" transform="matrix(0,-8,8,0,63.8,117.4)" />
<use xlink:href="#f4_q" transform="matrix(8,0,0,8,326.3,335.9)" />
</g>
<text
transform="matrix(0, -1, 1, 0, 63, 199)"
dx="0,0,0,0.4,-0.4,0,1.3,0,0,0,0,0,1.3,0,0,0"
class="s5_1"
>block error rate</text>

<g fill="#000000" >
<use xlink:href="#f4_h" transform="matrix(8,0,0,8,333.5,335.9)" />
<use xlink:href="#f4_o" transform="matrix(8,0,0,8,343.2,335.9)" />
<use xlink:href="#f4_m" transform="matrix(8,0,0,8,357,335.9)" />
<use xlink:href="#f4_6" transform="matrix(8,0,0,8,362.1,335.9)" />
<use xlink:href="#f4_2" transform="matrix(8,0,0,8,369.3,335.9)" />
<use xlink:href="#f4_n" transform="matrix(8,0,0,8,378.4,335.9)" />
<use xlink:href="#f4_e" transform="matrix(8,0,0,8,205.2,263.8)" />
</g>
<text
x="326"
y="335"
dx="0,0,0,0,1.3,0,0,0"
class="s5_1"
>SNR (dB)</text>

<g fill="#000000" >
<use xlink:href="#f4_u" transform="matrix(8,0,0,8,212.2,263.8)" />
<use xlink:href="#f4_7" transform="matrix(8,0,0,8,221.5,263.8)" />
<use xlink:href="#f4_p" transform="matrix(8,0,0,8,234.6,263.8)" />
<use xlink:href="#f4_1" transform="matrix(8,0,0,8,239.7,263.8)" />
<use xlink:href="#f4_v" transform="matrix(8,0,0,8,246.2,263.8)" />
<use xlink:href="#f4_8" transform="matrix(8,0,0,8,251.2,263.8)" />
<use xlink:href="#f5_2" transform="matrix(6,0,0,6,261.2,261.7)" />
</g>
<text
x="205"
y="263"
dx="0,-1.1,0,0,1.3,0,0,0"
class="s5_1"
>LTE rate</text>

<g fill="#000000" >
<use xlink:href="#f4_t" transform="matrix(8,0,0,8,265.4,263.8)" />
</g>
<text
x="261"
y="261"
dx="0"
class="s6_1"
>1</text>

<g fill="#000000" >
<use xlink:href="#f5_3" transform="matrix(6,0,0,6,271.1,263.8)" />
</g>
<text
x="265"
y="263"
dx="0"
class="s5_1"
>/</text>

<g fill="#000000" >
<use xlink:href="#f4_5" transform="matrix(8,0,0,8,276.7,263.8)" />
</g>
<text
x="271"
y="263"
dx="0"
class="s6_1"
>3</text>

<g fill="#000000" >
<use xlink:href="#f6_1" transform="matrix(8,0,0,8,284.6,263.8)" />
</g>
<text
x="276"
y="263"
dx="0"
class="s5_1"
>,</text>

<g fill="#000000" >
<use xlink:href="#f0_9" transform="matrix(8,0,0,8,295.3,263.8)" />
</g>
<text
x="284"
y="263"
dx="0"
class="s7_1"
>k</text>

<g fill="#000000" >
<use xlink:href="#f0_s" transform="matrix(8,0,0,8,308.9,263.8)" />
<use xlink:href="#f4_4" transform="matrix(8,0,0,8,319.7,263.8)" />
</g>
<text
x="295"
y="263"
dx="0,0,0.5"
class="s1_1"
>= 7</text>

<g fill="#000000" >
<use xlink:href="#f4_j" transform="matrix(8,0,0,8,325.5,263.8)" />
<use xlink:href="#f4_i" transform="matrix(8,0,0,8,331.9,263.8)" />
<use xlink:href="#f4_z" transform="matrix(8,0,0,8,338.8,263.8)" />
<use xlink:href="#f4_j" transform="matrix(8,0,0,8,345.2,263.8)" />
<use xlink:href="#f4_f" transform="matrix(8,0,0,8,351.7,263.8)" />
<use xlink:href="#f4_x" transform="matrix(8,0,0,8,355.3,263.8)" />
<use xlink:href="#f4_v" transform="matrix(8,0,0,8,362.5,263.8)" />
<use xlink:href="#f4_11" transform="matrix(8,0,0,8,367.5,263.8)" />
<use xlink:href="#f4_j" transform="matrix(8,0,0,8,371.1,263.8)" />
<use xlink:href="#f4_i" transform="matrix(8,0,0,8,377.6,263.8)" />
<use xlink:href="#f4_1" transform="matrix(8,0,0,8,384.8,263.8)" />
<use xlink:href="#f4_f" transform="matrix(8,0,0,8,391.2,263.8)" />
<use xlink:href="#f4_4" transform="matrix(8,0,0,8,399.1,263.8)" />
<use xlink:href="#f4_j" transform="matrix(8,0,0,8,404.9,263.8)" />
<use xlink:href="#f4_6" transform="matrix(8,0,0,8,411.7,263.8)" />
<use xlink:href="#f4_8" transform="matrix(8,0,0,8,418.9,263.8)" />
<use xlink:href="#f4_y" transform="matrix(8,0,0,8,205.2,279.8)" />
</g>
<text
x="319"
y="263"
dx="0,0,0,-0.4,-0.4,0,0,0,0,0,0,0,0,0,1.3,0,0.4,0"
class="s5_1"
>convolutional code</text>

<g fill="#000000" >
<use xlink:href="#f4_11" transform="matrix(8,0,0,8,214.9,279.8)" />
<use xlink:href="#f4_v" transform="matrix(8,0,0,8,218.5,279.8)" />
<use xlink:href="#f4_8" transform="matrix(8,0,0,8,223.5,279.8)" />
<use xlink:href="#f4_p" transform="matrix(8,0,0,8,229.2,279.8)" />
<use xlink:href="#f4_3" transform="matrix(8,0,0,8,234.3,279.8)" />
<use xlink:href="#f4_11" transform="matrix(8,0,0,8,241.5,279.8)" />
<use xlink:href="#f4_r" transform="matrix(8,0,0,8,249.4,279.8)" />
<use xlink:href="#f4_j" transform="matrix(8,0,0,8,254.5,279.8)" />
<use xlink:href="#f4_a" transform="matrix(8,0,0,8,260.9,279.8)" />
<use xlink:href="#f4_v" transform="matrix(8,0,0,8,264.9,279.8)" />
<use xlink:href="#f4_6" transform="matrix(8,0,0,8,274.2,279.8)" />
<use xlink:href="#f4_8" transform="matrix(8,0,0,8,281.4,279.8)" />
<use xlink:href="#f4_4" transform="matrix(8,0,0,8,287.2,279.8)" />
<use xlink:href="#f4_j" transform="matrix(8,0,0,8,292.9,279.8)" />
<use xlink:href="#f4_6" transform="matrix(8,0,0,8,299.8,279.8)" />
<use xlink:href="#f4_11" transform="matrix(8,0,0,8,307,279.8)" />
<use xlink:href="#f4_i" transform="matrix(8,0,0,8,310.5,279.8)" />
<use xlink:href="#f4_c" transform="matrix(8,0,0,8,317.7,279.8)" />
<use xlink:href="#f4_1" transform="matrix(8,0,0,8,205.2,238.7)" />
</g>
<text
x="205"
y="279"
dx="0,0,0,0,0,0,0,0,1.3,0,0,0,0,1.3,0,0,0,0.4,0,0,0"
class="s5_1"
>Viterbi soft decoding</text>

<g fill="#000000" >
<use xlink:href="#f4_x" transform="matrix(8,0,0,8,211.6,238.7)" />
<use xlink:href="#f4_v" transform="matrix(8,0,0,8,218.8,238.7)" />
<use xlink:href="#f4_j" transform="matrix(8,0,0,8,223.9,238.7)" />
<use xlink:href="#f4_8" transform="matrix(8,0,0,8,230.7,238.7)" />
<use xlink:href="#f4_i" transform="matrix(8,0,0,8,236.4,238.7)" />
<use xlink:href="#f4_4" transform="matrix(8,0,0,8,243.6,238.7)" />
<use xlink:href="#f4_j" transform="matrix(8,0,0,8,249.4,238.7)" />
<use xlink:href="#f4_6" transform="matrix(8,0,0,8,256.2,238.7)" />
<use xlink:href="#f4_8" transform="matrix(8,0,0,8,263.4,238.7)" />
<use xlink:href="#f4_p" transform="matrix(8,0,0,8,269.1,238.7)" />
<use xlink:href="#f4_5" transform="matrix(8,0,0,8,274.2,238.7)" />
<use xlink:href="#f4_s" transform="matrix(8,0,0,8,282.1,238.7)" />
<use xlink:href="#f4_3" transform="matrix(8,0,0,8,292.9,238.7)" />
<use xlink:href="#f4_11" transform="matrix(8,0,0,8,300.1,238.7)" />
<use xlink:href="#f4_v" transform="matrix(8,0,0,8,303.7,238.7)" />
<use xlink:href="#f4_r" transform="matrix(8,0,0,8,308.7,238.7)" />
<use xlink:href="#f4_5" transform="matrix(8,0,0,8,313.8,238.7)" />
<use xlink:href="#f4_w" transform="matrix(8,0,0,8,321.7,238.7)" />
<use xlink:href="#f4_k" transform="matrix(8,0,0,8,328.2,238.7)" />
<use xlink:href="#f4_r" transform="matrix(8,0,0,8,339,238.7)" />
<use xlink:href="#f4_1" transform="matrix(8,0,0,8,344.1,238.7)" />
<use xlink:href="#f4_g" transform="matrix(8,0,0,8,350.5,238.7)" />
<use xlink:href="#f4_l" transform="matrix(8,0,0,8,361.3,238.7)" />
<use xlink:href="#f4_f" transform="matrix(8,0,0,8,368.5,238.7)" />
<use xlink:href="#f4_8" transform="matrix(8,0,0,8,372.1,238.7)" />
<use xlink:href="#f4_r" transform="matrix(8,0,0,8,377.8,238.7)" />
</g>
<text
x="205"
y="238"
dx="0,0,0,0,0.4,0,0,0,0.4,0,0,0,0,1.3,0,1.3,0,0,0,0,0,1.3,0,0,1.3,0,0,0,0,0,0"
class="s5_1"
>autoencoder, 7 bits, 21 samples</text>


<defs>
	<path d="M155.8,0l0,50.4l53.5,0C354.4,50.4,359,68.8,359,125.3L359,909C270.4,867.8,187.9,867.8,146.7,867.8l0,50.4c145.1,0,226.1,36.7,288.7,97.8c41.3,0,44.3,-1.6,44.3,-42.8l0,-847.9c0,-56.5,4.6,-74.9,149.7,-74.9l53.5,0L682.9,0C620.3,4.6,487.4,4.6,418.6,4.6C349.9,4.6,218.5,4.6,155.8,0Z"
	id="f0_k"
	transform="scale(0.001,-0.001)" />

	<path d="M404.9,10.7c50.4,0,155.8,21.4,187.9,181.8c18.3,85.6,18.3,223.1,18.3,313.2c0,103.9,0,218.5,-18.3,302.5c-30.6,139,-136,165,-187.9,165c-38.2,0,-157.4,-15.3,-189.5,-171.1c-16.8,-84,-16.8,-191,-16.8,-296.4c0,-79.4,0,-223.1,16.8,-310.1C247.5,35.1,352.9,10.7,404.9,10.7Zm0,-42.7c-81,0,-194.1,29,-264.3,142c-73.4,122.2,-78,276.5,-78,377.4c0,79.4,3.1,230.7,58.1,342.2c21.4,42.8,91.7,186.4,284.2,186.4c84,0,207.7,-33.6,275,-168.1c50.4,-97.8,67.2,-197.1,67.2,-360.5c0,-99.3,-4.6,-235.3,-61.1,-345.3C609.6,-9.1,478.2,-32,404.9,-32Z"
	id="f0_10"
	transform="scale(0.001,-0.001)" />

	<path d="M250.6,342.2c-21.4,0,-59.6,0,-59.6,39.7c0,39.8,38.2,39.8,59.6,39.8l968.6,0c21.4,0,59.6,0,59.6,-39.8c0,-39.7,-38.2,-39.7,-59.6,-39.7Z"
	id="f1_1"
	transform="scale(0.001,-0.001)" />

	<path d="M556.1,310.1l0,554.6L136,310.1ZM372.8,0l0,59.6l44.3,0c128.3,0,128.3,18.3,128.3,68.7l0,122.3l-475.1,0l0,59.5l530.1,698.2c13.8,18.4,16.8,23,44.3,23c38.2,0,38.2,-10.7,38.2,-45.9l0,-675.3l178.8,0l0,-59.5l-178.8,0l0,-122.3c0,-50.4,0,-68.7,128.4,-68.7l44.3,0L855.6,0L614.2,6.1L372.8,0Z"
	id="f2_1"
	transform="scale(0.001,-0.001)" />

	<path d="M458.3,-32c-194,0,-362,85.5,-362,236.7c0,64.2,45.8,90.2,87,90.2c50.5,0,87.1,-35.2,87.1,-87.1c0,-41.3,-24.4,-81,-84,-87.1C255.1,32.1,412.5,22.9,453.8,22.9c111.5,0,212.3,73.4,212.3,241.4c0,155.8,-87.1,242.9,-216.9,242.9l-88.6,0c-26,0,-42.8,0,-42.8,24.5c0,22.9,16.8,24.4,32.1,25.9c13.7,0,55,3.1,82.5,4.6c152.7,9.2,200.1,155.9,200.1,239.9c0,126.8,-97.8,163.5,-175.7,163.5c-13.7,0,-152.8,0,-224.6,-79.5c41.3,-6.1,74.9,-33.6,74.9,-81c0,-53.4,-41.3,-80.9,-81,-80.9c-30.5,0,-81,18.3,-81,84c0,125.3,136,207.8,314.8,207.8c183.3,0,326.9,-91.7,326.9,-213.9C786.8,676.8,689,579,568.3,539.3C750.1,493.5,835.7,375.8,835.7,264.3C835.7,113.1,684.4,-32,458.3,-32Z"
	id="f2_3"
	transform="scale(0.001,-0.001)" />

	<path d="M110,0c0,47.4,1.5,48.9,16.8,64.2L488.9,395.7C595.8,493.5,667.6,605,667.6,713.5c0,123.7,-85.5,242.9,-245.9,242.9c-105.4,0,-198.6,-58.1,-233.8,-136c67.2,0,87.1,-48.9,87.1,-82.5c0,-55,-44.3,-82.5,-82.5,-82.5c-16.8,0,-82.5,9.2,-82.5,87.1C110,886.1,247.5,1016,444.6,1016c204.7,0,377.3,-111.6,377.3,-302.5C821.9,605,759.3,527.1,713.5,481.3C666.1,435.4,530.1,337.6,478.2,296.4L282.6,137.5l285.7,0c21.4,0,145.2,0,155.9,9.2c22.9,16.8,38.2,117.6,41.2,139l56.5,0L774.6,0Z"
	id="f2_4"
	transform="scale(0.001,-0.001)" />

	<path d="M194,0l0,59.6l65.7,0c157.4,0,157.4,19.8,157.4,70.3l0,771.5C325.4,858.6,224.6,858.6,184.9,858.6l0,59.6c55,0,210.8,0,311.6,97.8c45.9,0,52,0,52,-45.9l0,-840.2c0,-50.5,0,-70.3,157.3,-70.3l65.7,0L771.5,0C687.5,6.1,568.3,6.1,482.8,6.1C397.2,6.1,278.1,6.1,194,0Z"
	id="f2_2"
	transform="scale(0.001,-0.001)" />

	<path d="M466,16.8c50.4,0,160.4,19.9,203.2,152.8c25.9,85.5,25.9,239.8,25.9,337.6c0,117.7,-1.5,229.2,-24.4,310.2C637.1,933.5,536.3,967.1,466,967.1c-53.5,0,-169.6,-19.9,-207.8,-157.4C236.8,727.2,236.8,609.6,236.8,507.2c0,-94.7,0,-244.4,24.5,-333C297.9,47.4,401.8,16.8,466,16.8ZM466,-32C91.7,-32,91.7,377.4,91.7,487.4c0,111.5,0,528.6,374.3,528.6c374.3,0,374.3,-417.1,374.3,-528.6C840.3,377.4,840.3,-32,466,-32Z"
	id="f2_5"
	transform="scale(0.001,-0.001)" />

	<path d="M191,346.8c-21.4,0,-55,0,-55,35.1c0,35.2,33.6,35.2,55,35.2l878.4,0c21.4,0,55,0,55,-35.2c0,-35.1,-33.6,-35.1,-55,-35.1Z"
	id="f3_1"
	transform="scale(0.001,-0.001)" />

	<path d="M81,0c0,38.2,0,41.3,18.3,58.1L291.8,256.7C472.1,441.5,583.6,557.6,583.6,716.5c0,128.4,-73.3,249.1,-215.4,249.1C293.3,965.6,191,927.4,146.7,815.8c18.3,0,94.7,0,94.7,-79.4c0,-58.1,-47.4,-81,-79.5,-81C140.6,655.4,81,666.1,81,741c0,135.9,120.7,275,304,275c191,0,343.8,-117.7,343.8,-299.5c0,-139,-90.2,-223,-184.9,-310.1C519.4,385,455.3,334.6,430.8,311.7L224.6,125.3l271.9,0c24.5,0,140.6,0,149.8,12.2c18.3,29,30.5,105.4,35.1,136l47.4,0L684.4,0Z"
	id="f0_w"
	transform="scale(0.001,-0.001)" />

	<path d="M375.8,-32C200.1,-32,81,106.9,81,244.4c0,65.7,48.9,81,76.4,81c30.5,0,74.8,-19.8,74.8,-76.4c0,-47.3,-33.6,-74.8,-76.4,-74.8c0,0,-10.7,0,-15.2,1.5C175.7,76.4,273.5,13.8,372.8,13.8c81,0,142.1,47.3,171.1,93.1c42.8,67.3,44.3,149.8,44.3,206.3c0,59.6,-3.1,129.9,-29,184.9c-13.8,29,-55,99.3,-140.6,99.3c-129.8,0,-187.9,-78,-206.2,-100.9c-7.7,-12.2,-12.3,-18.3,-24.5,-18.3c-24.4,0,-24.4,18.3,-24.4,45.8l0,447.7c0,27.5,0,44.3,19.8,44.3c0,0,4.6,0,19.9,-7.7C250.6,990,325.4,967.1,415.6,967.1c82.5,0,152.7,18.3,212.3,41.2c13.8,7.7,19.9,7.7,19.9,7.7c7.6,0,18.3,-4.6,18.3,-21.4C666.1,971.7,550,837.2,359,837.2c-64.1,0,-125.2,15.3,-145.1,21.4l0,-294.8c58,51.9,129.9,76.3,206.2,76.3c180.3,0,308.7,-157.3,308.7,-334.5C728.8,116.1,566.8,-32,375.8,-32Z"
	id="f0_b"
	transform="scale(0.001,-0.001)" />

	<path d="M478.2,27.5c50.4,0,122.2,19.9,177.2,88.6c55,71.8,55,180.3,55,215.4c0,111.6,-21.4,165,-47.3,206.3C632.5,583.6,572.9,631,493.5,631C424.7,631,352.9,598.9,308.6,542.4C285.7,514.9,285.7,511.8,285.7,482.8l0,-297.9c0,-29.1,0,-30.6,18.3,-59.6C343.8,65.7,404.9,27.5,478.2,27.5Zm6.1,-42.7c-103.9,0,-175.7,58,-212.4,109.9L216.9,0L169.6,0l0,907.5c0,74.9,-12.2,85.6,-116.1,85.6l0,50.4l227.6,16.8l0,-479.7c26,27.5,100.8,93.2,221.5,93.2C689,673.8,846.4,522.5,846.4,330C846.4,134.4,678.3,-15.2,484.3,-15.2Z"
	id="f4_3"
	transform="scale(0.001,-0.001)" />

	<path d="M64.2,0l0,50.4c97.7,0,116.1,0,116.1,68.8l0,788.3c0,74.9,-12.2,85.6,-116.1,85.6l0,50.4l227.6,16.8l0,-941.1c0,-68.8,18.3,-68.8,116.1,-68.8L407.9,0C348.3,4.6,265.8,4.6,235.3,4.6C209.3,4.6,123.8,4.6,64.2,0Z"
	id="f4_f"
	transform="scale(0.001,-0.001)" />

	<path d="M404.9,32.1c67.2,0,135.9,27.5,177.2,88.6c42.8,64.2,45.8,148.2,45.8,218.5c0,61.1,-1.5,143.6,-42.8,207.7C550,600.4,484.3,638.6,404.9,638.6c-71.8,0,-136,-30.5,-175.7,-84C181.8,488.9,181.8,397.2,181.8,339.2c0,-76.4,4.6,-151.3,42.8,-213.9C258.2,71.8,322.4,32.1,404.9,32.1Zm0,-47.3C209.3,-15.2,45.8,134.4,45.8,325.4c0,191,157.4,356,359.1,356c201.6,0,359,-165,359,-356c0,-191,-162,-340.6,-359,-340.6Z"
	id="f4_j"
	transform="scale(0.001,-0.001)" />

	<path d="M404.9,-15.2C212.4,-15.2,53.5,136,53.5,330c0,181.8,143.6,351.4,355.9,351.4c143.7,0,247.5,-45.8,247.5,-140.6c0,-45.8,-32,-73.3,-71.8,-73.3c-42.7,0,-71.8,30.6,-71.8,71.8c0,18.3,6.1,53.5,48.9,67.2C508.8,634,427.8,634,414,634C302.5,634,189.4,551.5,189.4,331.5c0,-226.1,136,-299.4,230.7,-299.4c152.8,0,195.6,120.7,206.3,152.8c4.6,15.2,12.2,16.8,22.9,16.8c4.6,0,24.5,0,24.5,-18.4C673.8,165,620.3,-15.2,404.9,-15.2Z"
	id="f4_4"
	transform="scale(0.001,-0.001)" />

	<path d="M53.5,0l0,50.4c97.8,0,116.1,0,116.1,68.8l0,788.3c0,74.9,-12.2,85.6,-116.1,85.6l0,50.4l227.6,16.8l0,-727.2l220,177.2c12.2,9.1,42.8,35.1,42.8,67.2c0,9.2,-6.1,29,-35.1,30.6l0,50.4c67.2,-3.1,88.6,-4.6,163.4,-4.6c62.7,0,84.1,0,120.7,4.6l0,-50.4C754.7,606.5,690.6,598.9,589.7,519.4L459.9,415.6L681.4,128.3c55,-71.8,82.5,-77.9,146.7,-77.9L828.1,0C774.6,4.6,744,4.6,686,4.6C660,4.6,591.3,4.6,525.6,0l0,50.4c18.3,0,47.3,4.6,47.3,30.6c0,22.9,-32.1,62.6,-53.5,93.2c-24.4,30.5,-48.8,61.1,-71.8,93.2c-24.4,29,-64.1,82.5,-68.7,82.5L275,267.4l0,-148.2C275,50.4,293.3,50.4,391.1,50.4L391.1,0C331.5,4.6,252.1,4.6,221.5,4.6C195.6,4.6,113.1,4.6,53.5,0Z"
	id="f4_d"
	transform="scale(0.001,-0.001)" />

	<path d="M569.9,388.1c-1.6,35.1,-7.7,250.5,-186.4,250.5c-56.6,0,-186.4,-36.7,-200.2,-250.5ZM403.3,-15.2C210.8,-15.2,45.8,137.5,45.8,334.6C45.8,524,194,681.4,383.5,681.4c215.4,0,290.3,-162,290.3,-297.9c0,-35.2,-9.2,-35.2,-42.8,-35.2l-449.2,0c0,-45.8,0,-143.6,45.8,-213.9C273.5,64.2,343.8,32.1,412.5,32.1c27.5,0,158.9,4.6,213.9,152.8c3,9.1,6.1,19.8,22.9,19.8c19.9,0,24.5,-15.3,24.5,-21.4c0,-35.1,-76.4,-198.5,-270.5,-198.5Z"
	id="f4_8"
	transform="scale(0.001,-0.001)" />

	<path d="M53.5,0l0,50.4c97.8,0,116.1,0,116.1,68.8l0,401.8c0,74.8,-12.2,85.5,-116.1,85.5l0,50.4l216.9,16.9l0,-160.5l1.5,0c32.1,85.6,99.4,160.5,198.7,160.5c67.2,0,116.1,-42.8,116.1,-96.3c0,-44.3,-32.1,-68.7,-68.8,-68.7c-30.5,0,-67.2,21.3,-67.2,68.7c0,35.1,15.3,47.4,24.4,53.5C328.5,627.9,281.1,462.9,281.1,348.3l0,-226.1c0,-55,3.1,-71.8,114.6,-71.8l30.6,0L426.3,0C326.9,4.6,323.9,4.6,233.8,4.6C197.1,4.6,113.1,4.6,53.5,0Z"
	id="f4_p"
	transform="scale(0.001,-0.001)" />

	<path d="M323.9,27.5c61.1,0,186.4,39.7,186.4,187.9l0,151.3C271.9,359,177.2,255.1,177.2,154.3C177.2,81,244.4,27.5,323.9,27.5ZM311.7,-15.2c-105.4,0,-259.8,39.6,-259.8,171c0,50.5,26,139.1,160.5,197.1c106.9,44.3,209.3,48.9,297.9,53.5l0,47.4c0,125.2,-85.6,184.8,-171.1,184.8c-10.7,0,-93.2,0,-149.8,-38.2C223.1,592.8,246,566.8,246,530.1c0,-41.2,-29.1,-71.8,-71.8,-71.8c-39.8,0,-71.8,27.5,-71.8,73.4c0,100.8,113,149.7,239.8,149.7c139.1,0,284.2,-76.4,284.2,-226.1l0,-317.8c0,-16.8,0,-87.1,56.5,-87.1c32.1,0,55,24.5,55,87.1l0,84l47.4,0l0,-84C785.3,-1.4,655.4,-7.5,640.1,-7.5c-67.2,0,-106.9,57.9,-114.5,116C491.9,47.4,423.2,-15.2,311.7,-15.2Z"
	id="f4_1"
	transform="scale(0.001,-0.001)" />

	<path d="M375.8,-15.2C305.6,-15.2,168.1,12.2,168.1,191l0,417.1l-137.5,0l0,42.7c142,4.6,204.7,149.8,206.2,288.8l47.4,0l0,-281.1l227.6,0l0,-50.4l-227.6,0l0,-420.2c0,-24.4,0,-155.8,102.3,-155.8c58.1,0,105.4,56.5,105.4,161.9l0,82.5l47.4,0l0,-85.5C539.3,76.4,478.2,-15.2,375.8,-15.2Z"
	id="f4_v"
	transform="scale(0.001,-0.001)" />

	<path d="M110,-32C90.1,-32,90.1,-16.7,90.1,7.6l0,298c0,29,0,41.2,24.5,41.2c21.4,0,21.4,-10.7,22.9,-35.1C146.7,99.3,320.8,18.3,488.9,18.3c143.6,0,224.6,111.6,224.6,217c0,74.8,-38.2,126.8,-53.5,143.6c-50.4,53.5,-73.3,58,-204.7,88.6c-165,38.2,-215.4,50.4,-270.4,105.4c-29.1,29,-94.8,93.2,-94.8,209.3c0,155.9,134.5,293.4,316.3,293.4c84,0,181.8,-23,258.2,-107l53.5,85.6c10.7,16.8,13.7,21.4,25.9,21.4c19.9,0,19.9,-15.3,19.9,-39.8l0,-299.4c0,-29,0,-39.7,-24.5,-39.7c-19.8,0,-21.3,10.7,-24.4,27.5c-7.6,58,-42.8,305.5,-307.1,305.5C275,1029.7,186.4,933.5,186.4,831.1c0,-93.2,71.8,-171.1,169.6,-194L566.8,588.2C722.6,551.5,809.7,415.6,809.7,282.6C809.7,119.2,681.4,-32,490.4,-32c-91.6,0,-204.7,19.9,-301,105.3c-42.7,-64.1,-48.8,-77.8,-55,-87C123.8,-28.9,122.2,-32,110,-32Z"
	id="f4_q"
	transform="scale(0.001,-0.001)" />

	<path d="M67.2,0l0,50.4c154.3,0,154.3,73.4,154.3,113.1l0,791.4c0,29,-1.5,30.5,-41.2,35.1c-30.6,3.1,-42.8,3.1,-70.3,3.1l-42.8,0l0,50.4l255.2,0c30.5,0,32,-1.6,48.9,-22.9l569.8,-793l0,652.4c0,39.7,0,113.1,-154.3,113.1l0,50.4c68.8,-4.6,140.6,-4.6,180.3,-4.6c39.7,0,111.5,0,180.3,4.6l0,-50.4C993.1,993.1,993.1,919.7,993.1,880l0,-837.2c0,-27.5,0,-42.8,-26,-42.8C951.8,0,948.8,4.6,935,22.9L273.5,942.6l0,-779.1c0,-39.7,0,-113.1,154.3,-113.1L427.8,0C359,4.6,287.2,4.6,247.5,4.6C207.8,4.6,136,4.6,67.2,0Z"
	id="f4_h"
	transform="scale(0.001,-0.001)" />

	<path d="M548.5,543.9c160.4,0,282.6,55,282.6,224.6c0,224.6,-201.7,224.6,-339.2,224.6c-30.5,0,-79.4,0,-93.1,-1.6c-36.7,-4.6,-38.2,-21.4,-38.2,-61.1l0,-386.5ZM1031.3,-32c-44.4,0,-129.9,7.7,-195.6,64.1C771.5,88.6,771.5,154.3,771.5,250.6c0,103.8,0,132.9,-44.3,181.8c-10.7,12.2,-61.1,68.7,-174.1,68.7l-192.5,0l0,-377.3c0,-56.6,3,-73.4,120.7,-73.4l33.6,0L514.9,0L291.8,4.6L70.3,0l0,50.4l33.6,0c117.6,0,120.7,16.8,120.7,73.4l0,795.9c0,56.6,-3.1,73.4,-120.7,73.4l-33.6,0l0,50.4l498,0C796,1043.5,990,919.7,990,768.5C990,637.1,843.3,550,724.2,519.4C892.2,467.5,907.5,362.1,918.2,275C945.7,81,954.9,10.7,1037.4,10.7c42.7,0,96.2,33.6,103.9,129.9c1.5,10.7,1.5,27.5,22.9,27.5c24.4,0,24.4,-19.9,24.4,-29.1c0,-45.8,-30.5,-171,-157.3,-171Z"
	id="f4_o"
	transform="scale(0.001,-0.001)" />

	<path d="M508.8,-381.8C301,-235.2,157.4,39.7,157.4,381.9c0,183.4,42.7,458.4,247.5,672.3c12.2,13.7,88.6,91.6,113,91.6c15.3,0,21.4,-10.7,21.4,-18.3c0,-7.6,-1.5,-9.2,-22.9,-29C438.5,1028.2,256.7,821.9,256.7,381.9c0,-236.8,51.9,-520.8,261.2,-717.9c19.9,-19.9,21.4,-21.4,21.4,-27.5c0,-18.3,-18.3,-18.3,-30.5,-18.3Z"
	id="f4_m"
	transform="scale(0.001,-0.001)" />

	<path d="M406.4,27.5c71.8,0,142.1,36.7,184.9,97.8c22.9,30.5,22.9,36.6,22.9,64.1l0,325.5C568.3,594.3,495,631,421.7,631C343.8,631,275,588.2,238.3,531.7C203.2,478.2,189.4,415.6,189.4,326.9c0,-71.8,7.7,-146.6,48.9,-206.2C275,64.2,336.1,27.5,406.4,27.5Zm-7.6,-42.7C206.3,-15.2,53.5,140.6,53.5,328.5c0,197.1,169.6,345.3,360.5,345.3c79.5,0,151.3,-30.6,204.8,-88.7l0,322.4c0,74.9,-12.3,85.6,-116.2,85.6l0,50.4l227.7,16.8l0,-924.3c0,-74.9,12.2,-85.6,116.1,-85.6L846.4,0L614.2,-15.2l0,96.2C563.8,27.5,488.9,-15.2,398.8,-15.2Z"
	id="f4_6"
	transform="scale(0.001,-0.001)" />

	<path d="M644.7,50.4c155.9,0,258.2,107,258.2,230.7C902.9,401.8,815.8,521,667.6,521l-310.1,0l0,-407.9c0,-52,3.1,-62.7,73.3,-62.7ZM597.4,563.8c174.1,0,265.8,117.6,265.8,221.5c0,90.1,-68.8,207.8,-220,207.8l-212.4,0c-70.2,0,-73.3,-10.7,-73.3,-62.7l0,-366.6ZM73.3,0l0,50.4l33.6,0c117.7,0,120.7,16.8,120.7,73.4l0,795.9c0,56.6,-3,73.4,-120.7,73.4l-33.6,0l0,50.4l580.6,0c204.7,0,357.5,-122.2,357.5,-258.2c0,-103.9,-96.3,-204.7,-262.8,-239.9C939.6,524,1057.2,403.3,1057.2,279.6C1057.2,134.4,907.5,0,696.7,0Z"
	id="f4_2"
	transform="scale(0.001,-0.001)" />

	<path d="M111.5,-381.8c-15.2,0,-19.8,10.6,-19.8,18.3c0,7.6,1.5,9.2,21.4,29c77.9,70.3,259.7,278.1,259.7,716.4C372.8,617.2,323.9,896.8,110,1100c-18.3,18.3,-18.3,21.4,-18.3,27.5c0,7.6,4.6,18.3,19.8,18.3c27.5,0,166.6,-123.7,241.4,-264.3C447.6,701.3,472.1,527.1,472.1,381.9c0,-183.3,-42.8,-458.2,-247.5,-672.1C212.4,-303.9,136,-381.8,111.5,-381.8Z"
	id="f4_n"
	transform="scale(0.001,-0.001)" />

	<path d="M67.2,0l0,50.4l33.6,0c117.7,0,120.7,16.8,120.7,73.4l0,795.9c0,56.6,-3,73.4,-120.7,73.4l-33.6,0l0,50.4l235.3,-4.6c71.8,0,183.3,0,252.1,4.6l0,-50.4l-48.9,0c-143.6,0,-143.6,-21.4,-143.6,-74.9l0,-805.1c0,-52,3,-62.7,73.3,-62.7l142.1,0c279.6,0,302.5,187.9,320.8,346.8l47.4,0L901.4,0Z"
	id="f4_e"
	transform="scale(0.001,-0.001)" />

	<path d="M297.9,0l0,50.4l58.1,0c158.9,0,158.9,21.4,158.9,74.9l0,794.4c0,38.2,-1.6,53.5,-30.6,59.6c-12.2,3.1,-59.6,3.1,-88.6,3.1C161.9,982.4,126.8,944.2,105.4,686l-47.3,0l30.5,346.8l993.1,0L1112.2,686l-47.3,0c-21.4,258.2,-56.6,296.4,-290.3,296.4c-29,0,-73.3,0,-87.1,-3.1c-32.1,-6.1,-32.1,-24.4,-32.1,-59.6l0,-794.4c0,-53.5,0,-74.9,158.9,-74.9l58.1,0L872.4,0C815.8,4.6,650.8,4.6,585.1,4.6C519.4,4.6,354.4,4.6,297.9,0Z"
	id="f4_u"
	transform="scale(0.001,-0.001)" />

	<path d="M67.2,0l0,50.4l33.6,0c117.7,0,120.7,16.8,120.7,73.4l0,791.3c0,56.6,-3,73.4,-120.7,73.4l-33.6,0l0,50.4l901.4,0l44.3,-346.8l-47.3,0C938.1,896.8,906,988.5,652.4,988.5l-217,0c-70.3,0,-73.3,-10.7,-73.3,-62.7l0,-360.5l148.2,0c151.2,0,172.6,45.8,172.6,178.7l47.4,0l0,-407.9l-47.4,0c0,132.9,-21.4,178.8,-172.6,178.8l-148.2,0l0,-401.8c0,-52,3,-62.7,73.3,-62.7l227.7,0c275,0,307,117.7,346.8,346.8l47.3,0L990,0Z"
	id="f4_7"
	transform="scale(0.001,-0.001)" />

	<path d="M194,0l0,59.6l65.7,0c157.4,0,157.4,19.8,157.4,70.3l0,771.5C325.4,858.6,224.6,858.6,184.9,858.6l0,59.6c55,0,210.8,0,311.6,97.8c45.9,0,52,0,52,-45.9l0,-840.2c0,-50.5,0,-70.3,157.3,-70.3l65.7,0L771.5,0C687.5,6.1,568.3,6.1,482.8,6.1C397.2,6.1,278.1,6.1,194,0Z"
	id="f5_2"
	transform="scale(0.001,-0.001)" />

	<path d="M125.3,-381.8c-19.9,0,-35.2,15.2,-35.2,35.1c0,0,0,9.2,7.7,27.5L646.3,1109.2c7.6,18.3,13.7,36.6,38.1,36.6c19.9,0,35.2,-15.2,35.2,-35.1c0,0,0,-9.2,-7.7,-27.5L163.5,-345.2c-7.7,-18.3,-13.8,-36.6,-38.2,-36.6Z"
	id="f4_t"
	transform="scale(0.001,-0.001)" />

	<path d="M458.3,-32c-194,0,-362,85.5,-362,236.7c0,64.2,45.8,90.2,87,90.2c50.5,0,87.1,-35.2,87.1,-87.1c0,-41.3,-24.4,-81,-84,-87.1C255.1,32.1,412.5,22.9,453.8,22.9c111.5,0,212.3,73.4,212.3,241.4c0,155.8,-87.1,242.9,-216.9,242.9l-88.6,0c-26,0,-42.8,0,-42.8,24.5c0,22.9,16.8,24.4,32.1,25.9c13.7,0,55,3.1,82.5,4.6c152.7,9.2,200.1,155.9,200.1,239.9c0,126.8,-97.8,163.5,-175.7,163.5c-13.7,0,-152.8,0,-224.6,-79.5c41.3,-6.1,74.9,-33.6,74.9,-81c0,-53.4,-41.3,-80.9,-81,-80.9c-30.5,0,-81,18.3,-81,84c0,125.3,136,207.8,314.8,207.8c183.3,0,326.9,-91.7,326.9,-213.9C786.8,676.8,689,579,568.3,539.3C750.1,493.5,835.7,375.8,835.7,264.3C835.7,113.1,684.4,-32,458.3,-32Z"
	id="f5_3"
	transform="scale(0.001,-0.001)" />

	<path d="M181.8,-296.3c-7.6,0,-21.4,9.2,-21.4,22.9c0,9.2,4.6,12.2,9.2,16.8C285.7,-148.1,285.7,-22.8,285.7,22.9C281.1,18.3,259.7,0,226.1,0C172.6,0,140.6,39.7,140.6,85.6c0,44.3,33.6,84,84,84c73.3,0,103.9,-79.5,103.9,-163.5c0,-183.2,-126.8,-302.4,-146.7,-302.4Z"
	id="f4_5"
	transform="scale(0.001,-0.001)" />

	<path d="M137.5,-15.2c-29,0,-50.4,21.3,-50.4,47.3c0,0,0,10.7,6.1,33.6L310.1,935c7.7,27.5,7.7,30.6,7.7,35.1c0,13.8,0,23,-73.4,23c-18.3,0,-39.7,0,-39.7,21.3c0,27.5,15.3,29.1,48.9,32.1l85.6,6.1c35.1,3.1,82.5,7.7,88.6,7.7c18.3,0,24.4,-13.8,24.4,-21.4c0,0,-4.6,-21.4,-6.1,-24.5L294.9,404.9c24.4,10.7,62.6,27.5,151.2,114.5c87.1,87.1,166.5,154.4,255.2,154.4c76.3,0,113,-55,113,-107c0,-62.6,-45.8,-96.2,-87.1,-96.2c-33.6,0,-59.6,22.9,-59.6,56.5c0,0,0,73.3,82.5,84C737.9,626.4,719.6,631,699.7,631C626.4,631,557.6,574.4,473.6,491.9C455.3,472.1,403.3,420.1,346.8,386.5C424.7,375.8,582.1,348.3,582.1,223.1c0,-16.8,-6.1,-41.3,-7.7,-47.4c-7.6,-35.1,-9.1,-53.5,-9.1,-73.3c0,-41.3,9.1,-74.9,48.9,-74.9c71.8,0,111.5,102.4,131.4,174.2c6.1,27.5,9.1,36.6,27.5,36.6c10.7,0,22.9,-4.5,22.9,-19.8C796,209.3,771.5,117.6,734.9,61.1C715,32.1,675.3,-15.2,611.1,-15.2c-88.6,0,-155.8,65.6,-155.8,155.8c0,7.6,3,29,7.6,48.8c3.1,15.3,3.1,23,3.1,30.6c0,87.1,-102.4,116.1,-186.4,125.3L207.8,55C201.7,33.6,189.4,-15.2,137.5,-15.2Z"
	id="f6_1"
	transform="scale(0.001,-0.001)" />

	<path d="M149.7,184.9c-22.9,0,-59.6,0,-59.6,35.1c0,35.1,30.6,35.1,53.5,35.1l973.2,0c22.9,0,53.5,0,53.5,-35.1c0,-35.1,-36.7,-35.1,-59.6,-35.1Zm-6.1,323.9c-22.9,0,-53.5,0,-53.5,35.1c0,35.1,36.7,35.1,59.6,35.1l961,0c22.9,0,59.6,0,59.6,-35.1c0,-35.1,-30.6,-35.1,-53.5,-35.1Z"
	id="f0_9"
	transform="scale(0.001,-0.001)" />

	<path d="M360.6,-32c-71.8,0,-71.8,70.2,-71.8,85.5c0,120.7,36.6,362.1,210.8,594.3L656.9,858.6l-323.8,0c-23,0,-137.5,0,-154.3,-7.6C157.4,838.8,140.6,733.3,137.5,710.4l-47.4,0l52,322.4l47.3,0c4.6,-24.5,6.2,-38.2,85.6,-44.3c38.2,-3.1,85.6,-4.6,123.8,-4.6l388,0c0,-33.6,0,-36.7,-13.7,-53.5L543.9,627.9C469,528.6,432.4,348.3,432.4,128.3l0,-73.3c0,-18.3,0,-87,-71.8,-87Z"
	id="f0_s"
	transform="scale(0.001,-0.001)" />

	<path d="M62.6,0l0,50.4c97.8,0,116.2,0,116.2,68.8l0,401.8c0,74.8,-12.3,85.5,-116.2,85.5l0,50.4l221.6,16.9l0,-146.7l1.5,0C304,563.8,372.8,673.8,524,673.8c160.4,0,218.5,-82.5,218.5,-210.9l0,-343.7c0,-68.8,18.3,-68.8,116.1,-68.8L858.6,0C792.9,4.6,728.8,4.6,684.4,4.6C643.2,4.6,576,4.6,510.3,0l0,50.4c97.8,0,116.1,0,116.1,68.8l0,349.8c0,96.3,-22.9,162,-116.1,162C417.1,631,294.9,556.1,294.9,395.7l0,-276.5C294.9,50.4,313.2,50.4,411,50.4L411,0C345.3,4.6,281.1,4.6,236.8,4.6C195.6,4.6,128.3,4.6,62.6,0Z"
	id="f4_i"
	transform="scale(0.001,-0.001)" />

	<path d="M427.8,-15.2c-21.4,0,-30.6,10.7,-41.3,33.5L157.4,546.9c-23,52,-30.6,61.2,-123.8,61.2l0,50.4c48.9,-4.6,122.2,-4.6,154.3,-4.6c29,0,100.9,0,166.5,4.6l0,-50.4c-25.9,0,-80.9,0,-80.9,-38.2c0,0,0,-12.3,9.1,-32.1l180.3,-414l165,385c6.1,13.7,9.2,21.3,9.2,36.6c0,26,-13.8,59.6,-67.2,62.7l0,50.4c47.3,-4.6,119.1,-4.6,132.9,-4.6c62.6,0,65.7,0,119.1,4.6l0,-50.4C765.4,606.5,713.5,586.7,676.8,501.1L467.5,15.3C459.9,-3,449.2,-15.2,427.8,-15.2Z"
	id="f4_z"
	transform="scale(0.001,-0.001)" />

	<path d="M423.2,-15.2c-244.4,0,-244.4,142,-244.4,252l0,229.2c0,135.9,0,140.5,-116.2,140.5l0,50.4l232.3,16.9l0,-504.2C294.9,93.2,301,27.5,432.4,27.5c114.5,0,194,96.3,194,227.6l0,265.9c0,74.8,-12.2,85.5,-116.1,85.5l0,50.4l232.2,16.9l0,-537.8c0,-74.9,12.2,-85.6,116.1,-85.6L858.6,0L631,-15.2l0,123.7l-1.6,0C621.8,94.7,566.8,-15.2,423.2,-15.2Z"
	id="f4_x"
	transform="scale(0.001,-0.001)" />

	<path d="M64.2,0l0,50.4c97.7,0,116.1,0,116.1,68.8l0,403.3c0,74.9,-13.8,84,-111.5,84l0,50.4l223,16.9l0,-556.2c0,-59.5,6.1,-67.2,105.4,-67.2L397.2,0C343.8,4.6,252.1,4.6,232.2,4.6C209.3,4.6,123.8,4.6,64.2,0ZM226.1,835.7c-48.9,0,-84,39.7,-84,84c0,50.4,39.7,85.6,84,85.6c44.3,0,84,-35.2,84,-85.6c0,-44.3,-36.6,-84,-84,-84Z"
	id="f4_11"
	transform="scale(0.001,-0.001)" />

	<path d="M606.5,-32c-16.8,0,-29,4.6,-41.2,33.5L183.3,935c-24.4,58.1,-58,58.1,-149.7,58.1l0,50.4c77.9,-4.6,123.8,-4.6,197.1,-4.6l213.9,4.6l0,-50.4c-38.2,0,-119.2,0,-119.2,-44.3c0,-6.2,3.1,-12.3,9.2,-27.5L653.9,145.1L956.4,884.6c7.6,16.8,9.2,21.4,9.2,33.6c0,41.2,-36.7,74.9,-103.9,74.9l0,50.4c68.7,-4.6,139,-4.6,168,-4.6c29.1,0,107,0,151.3,4.6l0,-50.4c-30.6,0,-126.8,-1.6,-168.1,-102.4L647.8,1.5C638.6,-19.8,634,-32,606.5,-32Z"
	id="f4_y"
	transform="scale(0.001,-0.001)" />

	<path d="M73.3,-15.2C53.5,-15.2,53.5,0,53.5,24.4l0,189.5c0,29,0,41.2,24.4,41.2c18.4,0,19.9,-7.6,26,-27.5C123.8,146.7,168.1,27.5,322.4,27.5c140.5,0,180.2,70.3,180.2,129.9c0,103.9,-117.6,125.2,-189.4,139C210.8,314.7,175.7,320.8,114.6,366.7C110,371.3,53.5,415.6,53.5,491.9c0,73.4,47.3,189.5,261.2,189.5c68.8,0,113.1,-16.8,137.5,-33.6c9.2,-6.1,13.8,-6.1,13.8,-6.1c4.6,0,18.3,13.7,21.4,15.2c24.4,24.5,29,24.5,36.6,24.5c19.9,0,19.9,-15.3,19.9,-39.7l0,-143.6c0,-29.1,0,-39.8,-24.5,-39.8c-10.6,0,-21.3,4.6,-22.9,16.8c-3,42.8,-10.7,168.1,-181.8,168.1C169.6,643.2,136,579,136,533.2C136,472.1,207.8,440,255.1,429.3c6.2,0,91.7,-15.3,103.9,-18.3C540.8,377.4,585.1,270.4,585.1,197.1C585.1,96.3,517.9,-15.2,323.9,-15.2c-39.7,0,-111.5,3.1,-180.3,65.6C136,42.8,119.2,22.9,111.5,15.3C84,-13.7,82.5,-15.2,73.3,-15.2Z"
	id="f4_r"
	transform="scale(0.001,-0.001)" />

	<path d="M64.2,0l0,50.4c97.7,0,116.1,0,116.1,68.8l0,488.9L55,608.1l0,50.4l125.3,0l0,171.1c0,163.5,136,246,250.5,246c81,0,145.2,-44.3,145.2,-110c0,-39.8,-27.5,-68.8,-68.8,-68.8c-39.7,0,-68.7,29,-68.7,68.8c0,19.8,7.6,45.8,35.1,59.5c-6.1,1.6,-19.8,7.7,-44.3,7.7C362.1,1032.8,287.2,964,287.2,831.1l0,-172.6l187.9,0l0,-50.4l-183.3,0l0,-485.9c0,-55,3.1,-71.8,114.6,-71.8l30.5,0L436.9,0C337.6,4.6,334.6,4.6,244.4,4.6C207.8,4.6,123.8,4.6,64.2,0Z"
	id="f4_a"
	transform="scale(0.001,-0.001)" />

	<path d="M404.9,-268.8c151.2,0,268.9,70.3,268.9,152.8C673.8,6.1,473.6,6.1,432.4,6.1l-146.7,0C160.4,6.1,136,-83.9,136,-116c0,-82.5,116.1,-152.8,268.9,-152.8ZM360.6,268.9c27.5,0,76.3,10.7,110,53.5c22.9,30.5,30.5,70.2,30.5,126.8c0,33.6,0,180.2,-142.1,180.2c-41.2,0,-84,-18.3,-110,-53.4C226.1,545.4,218.5,505.7,218.5,449.2c0,-33.6,0,-180.3,142.1,-180.3Zm44.3,-582c-201.7,0,-359.1,85.6,-359.1,195.6c0,70.2,62.7,129.7,142.1,151.1c-33.6,26,-64.1,73.3,-64.1,136c0,36.7,12.2,85.5,45.8,123.7C137.5,323.9,97.8,377.4,97.8,449.2c0,119.1,111.5,224.6,262.8,224.6c71.8,0,131.3,-26,169.5,-53.5c70.3,64.1,143.7,70.3,169.6,70.3c67.2,0,87.1,-52,87.1,-78c0,-35.1,-26,-48.8,-47.4,-48.8c-27.5,0,-47.3,19.8,-47.3,47.3c0,24.5,7.6,32.1,13.7,36.7C631,646.3,580.6,614.2,559.2,595.8c36.6,-39.7,62.6,-88.6,62.6,-146.6C621.8,330,510.3,224.6,359,224.6c-36.6,0,-96.2,7.6,-160.4,45.8C187.9,256.7,178.8,242.9,178.8,206.3c0,-55,38.1,-96.3,85.5,-100.9l85.6,0c149.7,0,224.5,0,314.7,-47.3C715,32.1,763.9,-32,763.9,-114.5c0,-120.7,-168.1,-198.6,-359,-198.6Z"
	id="f4_c"
	transform="scale(0.001,-0.001)" />

	<path d="M360.6,-32c-71.8,0,-71.8,70.2,-71.8,85.5c0,120.7,36.6,362.1,210.8,594.3L656.9,858.6l-323.8,0c-23,0,-137.5,0,-154.3,-7.6C157.4,838.8,140.6,733.3,137.5,710.4l-47.4,0l52,322.4l47.3,0c4.6,-24.5,6.2,-38.2,85.6,-44.3c38.2,-3.1,85.6,-4.6,123.8,-4.6l388,0c0,-33.6,0,-36.7,-13.7,-53.5L543.9,627.9C469,528.6,432.4,348.3,432.4,128.3l0,-73.3c0,-18.3,0,-87,-71.8,-87Z"
	id="f4_s"
	transform="scale(0.001,-0.001)" />

	<path d="M81,0c0,38.2,0,41.3,18.3,58.1L291.8,256.7C472.1,441.5,583.6,557.6,583.6,716.5c0,128.4,-73.3,249.1,-215.4,249.1C293.3,965.6,191,927.4,146.7,815.8c18.3,0,94.7,0,94.7,-79.4c0,-58.1,-47.4,-81,-79.5,-81C140.6,655.4,81,666.1,81,741c0,135.9,120.7,275,304,275c191,0,343.8,-117.7,343.8,-299.5c0,-139,-90.2,-223,-184.9,-310.1C519.4,385,455.3,334.6,430.8,311.7L224.6,125.3l271.9,0c24.5,0,140.6,0,149.8,12.2c18.3,29,30.5,105.4,35.1,136l47.4,0L684.4,0Z"
	id="f4_w"
	transform="scale(0.001,-0.001)" />

	<path d="M155.8,0l0,50.4l53.5,0C354.4,50.4,359,68.8,359,125.3L359,909C270.4,867.8,187.9,867.8,146.7,867.8l0,50.4c145.1,0,226.1,36.7,288.7,97.8c41.3,0,44.3,-1.6,44.3,-42.8l0,-847.9c0,-56.5,4.6,-74.9,149.7,-74.9l53.5,0L682.9,0C620.3,4.6,487.4,4.6,418.6,4.6C349.9,4.6,218.5,4.6,155.8,0Z"
	id="f4_k"
	transform="scale(0.001,-0.001)" />

	<path d="M62.6,0l0,50.4c97.8,0,116.2,0,116.2,68.8l0,401.8c0,74.8,-12.3,85.5,-116.2,85.5l0,50.4l221.6,16.9l0,-146.7l1.5,0c19.9,41.2,90.1,146.7,238.3,146.7c99.3,0,186.4,-30.6,213.9,-140.6c24.5,44.3,94.7,140.6,235.3,140.6c166.5,0,220,-87.1,220,-210.9l0,-343.7c0,-68.8,18.3,-68.8,116.1,-68.8l0,-50.4c-65.7,4.6,-129.9,4.6,-174.2,4.6C1093.9,4.6,1026.7,4.6,961,0l0,50.4c97.8,0,116.1,0,116.1,68.8l0,349.8c0,84.1,-16.8,162,-116.1,162C864.7,631,744,556.1,744,395.7l0,-276.5C744,50.4,762.4,50.4,860.1,50.4L860.1,0C794.4,4.6,730.3,4.6,686,4.6C644.7,4.6,577.5,4.6,511.8,0l0,50.4c97.8,0,116.1,0,116.1,68.8l0,349.8c0,84.1,-16.8,162,-116.1,162C415.6,631,294.9,556.1,294.9,395.7l0,-276.5C294.9,50.4,313.2,50.4,411,50.4L411,0C345.3,4.6,281.1,4.6,236.8,4.6C195.6,4.6,128.3,4.6,62.6,0Z"
	id="f4_g"
	transform="scale(0.001,-0.001)" />

	<path d="M476.7,27.5c123.7,0,233.7,126.8,233.7,302.5c0,166.5,-99.3,296.4,-216.9,296.4c-96.3,0,-172.7,-56.5,-207.8,-117.6l0,-325.5c0,-29,0,-30.5,18.3,-56.5C352.9,50.4,423.2,27.5,476.7,27.5ZM53.5,-296.3l0,50.4c97.8,0,116.1,0,116.1,68.8l0,710.3c0,64.2,-7.7,73.3,-116.1,73.3l0,50.4l227.6,16.9l0,-94.8c77.9,79.5,166.5,94.8,226.1,94.8C692.1,673.8,846.4,521,846.4,330C846.4,134.4,678.3,-15.2,484.3,-15.2C435.4,-15.2,357.5,-3,285.7,74.9l0,-252c0,-68.8,18.3,-68.8,116.1,-68.8l0,-50.4c-65.7,4.6,-129.9,4.6,-174.2,4.6c-41.2,0,-108.4,0,-174.1,-4.6Z"
	id="f4_l"
	transform="scale(0.001,-0.001)" />


</defs>

<!-- Any embedded fonts defined here -->
<style type="text/css" ><![CDATA[

@font-face {
	font-family: LMRoman8-Regular_k;
	src: url("fonts/LMRoman8-Regular_k.woff") format("woff");
}

@font-face {
	font-family: LMMathSymbols8-Regular_n;
	src: url("fonts/LMMathSymbols8-Regular_n.woff") format("woff");
}

@font-face {
	font-family: LMRoman6-Regular_p;
	src: url("fonts/LMRoman6-Regular_p.woff") format("woff");
}

@font-face {
	font-family: LMMathItalic8-Regular_q;
	src: url("fonts/LMMathItalic8-Regular_q.woff") format("woff");
}

@font-face {
	font-family: LMRoman6-Regular_m;
	src: url("fonts/LMRoman6-Regular_m.woff") format("woff");
}

@font-face {
	font-family: LMMathSymbols6-Regular_l;
	src: url("fonts/LMMathSymbols6-Regular_l.woff") format("woff");
}

@font-face {
	font-family: LMRoman8-Regular_o;
	src: url("fonts/LMRoman8-Regular_o.woff") format("woff");
}

]]></style>

</svg>
