<?xml version="1.0" encoding="UTF-8" standalone="no"?>
<!DOCTYPE svg PUBLIC "-//W3C//DTD SVG 1.1//EN"
"http://www.w3.org/Graphics/SVG/1.1/DTD/svg11.dtd">


<!-- Page 1 -->
<svg x="0" y="0" width="585" height="568" viewBox="0 0 585 568" version="1.1" xmlns="http://www.w3.org/2000/svg" xmlns:xlink="http://www.w3.org/1999/xlink"
style="display: block;margin-left: auto;margin-right: auto;">
<defs>

<style type="text/css"><![CDATA[

.g1_1{
fill: none;
stroke: #000000;
stroke-width: 0.6088194;
stroke-linecap: butt;
stroke-linejoin: miter;
stroke-dasharray: 1,4;
}
.g2_1{
fill: none;
stroke: #000000;
stroke-width: 0.6088194;
stroke-linecap: butt;
stroke-linejoin: miter;
}
.g3_1{
}

.s1_1{
font-size: 15.22px;
font-family: LMRoman10-Regular_j;
fill: TRANSPARENT;
}
.s2_1{
font-size: 15.22px;
font-family: LMMathItalic10-Regular_k;
fill: TRANSPARENT;
}
.s3_1{
font-size: 10.65px;
font-family: LMRoman7-Regular_l;
fill: TRANSPARENT;
}
.s4_1{
font-size: 60.88px;
font-family: LMMathItalic10-Regular_k;
fill: TRANSPARENT;
}
.s5_1{
font-size: 10.65px;
font-family: LMMathItalic7-Regular_m;
fill: TRANSPARENT;
}
.s6_1{
font-size: 10.65px;
font-family: LMMathSymbols7-Regular_n;
fill: TRANSPARENT;
}
.s7_1{
font-size: 15.22px;
font-family: LMRoman10-Regular_o;
fill: TRANSPARENT;
}
text::-moz-selection {
	color: transparent;
	background: rgba(0, 106, 173, 0.4);
}
text::selection {
	color: transparent;
	background: rgba(0, 106, 173, 0.4);
}

]]></style>

</defs>
<path d="M0,0
L0,568
L585,568
L585,0 Z " 
fill="#FFFFFF" stroke="none" />
<path d="M192.9,24.6C192.9,12.7,183.2,3,171.3,3c-12,0,-21.7,9.7,-21.7,21.6c0,12,9.7,21.7,21.7,21.7c11.9,0,21.6,-9.7,21.6,-21.7Z" class="g1_1" />
<g fill="#000000" >
<use xlink:href="#f0_c" transform="matrix(10,0,0,10,167.5,29.4)" />
<use xlink:href="#f1_2" transform="matrix(10,0,0,10,260.9,26.8)" />
</g>
<text 
x="167" 
y="29" 
dx="0" 
class="s1_1"
>1</text>

<g fill="#000000" >
<use xlink:href="#f2_2" transform="matrix(7,0,0,7,269.6,29)" />
</g>
<text 
x="260" 
y="26" 
dx="0" 
class="s2_1"
>x</text>

<g fill="#000000" >
<use xlink:href="#f1_2" transform="matrix(10,0,0,10,358.4,26.8)" />
</g>
<text 
x="269" 
y="29" 
dx="0" 
class="s3_1"
>0</text>

<g fill="#000000" >
<use xlink:href="#f2_1" transform="matrix(7,0,0,7,367.1,29)" />
</g>
<text 
x="358" 
y="26" 
dx="0" 
class="s2_1"
>x</text>

<g fill="#000000" >
<use xlink:href="#f1_1" transform="matrix(39.9,0,0,39.9,428.1,29)" />
</g>
<text 
x="367" 
y="29" 
dx="0" 
class="s3_1"
>1</text>

<g fill="#000000" >
<use xlink:href="#f1_1" transform="matrix(39.9,0,0,39.9,455.2,29)" />
<use xlink:href="#f1_1" transform="matrix(39.9,0,0,39.9,482.2,29)" />
<use xlink:href="#f1_2" transform="matrix(10,0,0,10,544.7,26.1)" />
</g>
<text 
x="428" 
y="28" 
dx="0,0,-5.1,0,-5.1" 
class="s4_1"
>. . .</text>

<g fill="#000000" >
<use xlink:href="#f3_2" transform="matrix(7,0,0,7,553.4,28.4)" />
</g>
<text 
x="544" 
y="26" 
dx="0" 
class="s2_1"
>x</text>

<g fill="#000000" >
<use xlink:href="#f4_1" transform="matrix(7,0,0,7,561,28.4)" />
</g>
<text 
x="553" 
y="28" 
dx="0" 
class="s5_1"
>n</text>

<g fill="#000000" >
<use xlink:href="#f2_1" transform="matrix(7,0,0,7,570.5,28.4)" />
</g>
<text 
x="560" 
y="28" 
dx="0" 
class="s6_1"
>-</text>

<text 
x="570" 
y="28" 
dx="0" 
class="s3_1"
>1</text>

<path d="M290.4,154.5c0,-11.9,-9.7,-21.6,-21.7,-21.6c-12,0,-21.6,9.7,-21.6,21.6c0,12,9.6,21.7,21.6,21.7c12,0,21.7,-9.7,21.7,-21.7Z" class="g2_1" />
<path d="M387.8,154.5c0,-11.9,-9.7,-21.6,-21.7,-21.6c-11.9,0,-21.6,9.7,-21.6,21.6c0,12,9.7,21.7,21.6,21.7c12,0,21.7,-9.7,21.7,-21.7Z" class="g2_1" />
<g fill="#000000" >
<use xlink:href="#f1_1" transform="matrix(39.9,0,0,39.9,428.1,158.9)" />
<use xlink:href="#f1_1" transform="matrix(39.9,0,0,39.9,455.2,158.9)" />
<use xlink:href="#f1_1" transform="matrix(39.9,0,0,39.9,482.2,158.9)" />
</g>
<text 
x="428" 
y="158" 
dx="0,0,-5.1,0,-5.1" 
class="s4_1"
>. . .</text>

<path d="M582.7,154.5c0,-11.9,-9.7,-21.6,-21.7,-21.6c-11.9,0,-21.6,9.7,-21.6,21.6c0,12,9.7,21.7,21.6,21.7c12,0,21.7,-9.7,21.7,-21.7Z" class="g2_1" />
<path d="M192.9,284.5c0,-12,-9.7,-21.7,-21.6,-21.7c-12,0,-21.7,9.7,-21.7,21.7c0,11.9,9.7,21.6,21.7,21.6c11.9,0,21.6,-9.7,21.6,-21.6Z" class="g1_1" />
<g fill="#000000" >
<use xlink:href="#f0_c" transform="matrix(10,0,0,10,167.5,289.3)" />
<use xlink:href="#f1_3" transform="matrix(10,0,0,10,261.8,286.6)" />
</g>
<text 
x="167" 
y="289" 
dx="0" 
class="s1_1"
>1</text>

<g fill="#000000" >
<use xlink:href="#f2_2" transform="matrix(7,0,0,7,268.8,288.9)" />
</g>
<text 
x="261" 
y="286" 
dx="0" 
class="s2_1"
>z</text>

<g fill="#000000" >
<use xlink:href="#f1_3" transform="matrix(10,0,0,10,359.2,286.6)" />
</g>
<text 
x="268" 
y="288" 
dx="0" 
class="s3_1"
>0</text>

<g fill="#000000" >
<use xlink:href="#f2_1" transform="matrix(7,0,0,7,366.3,288.9)" />
</g>
<text 
x="359" 
y="286" 
dx="0" 
class="s2_1"
>z</text>

<g fill="#000000" >
<use xlink:href="#f1_1" transform="matrix(39.9,0,0,39.9,428.1,288.8)" />
</g>
<text 
x="366" 
y="288" 
dx="0" 
class="s3_1"
>1</text>

<g fill="#000000" >
<use xlink:href="#f1_1" transform="matrix(39.9,0,0,39.9,455.2,288.8)" />
<use xlink:href="#f1_1" transform="matrix(39.9,0,0,39.9,482.2,288.8)" />
<use xlink:href="#f1_3" transform="matrix(10,0,0,10,543.9,286)" />
</g>
<text 
x="428" 
y="288" 
dx="0,0,-5.1,0,-5.1" 
class="s4_1"
>. . .</text>

<g fill="#000000" >
<use xlink:href="#f3_1" transform="matrix(7,0,0,7,551,288.2)" />
</g>
<text 
x="543" 
y="285" 
dx="0" 
class="s2_1"
>z</text>

<g fill="#000000" >
<use xlink:href="#f4_1" transform="matrix(7,0,0,7,561.8,288.2)" />
</g>
<text 
x="550" 
y="288" 
dx="0" 
class="s5_1"
>m</text>

<g fill="#000000" >
<use xlink:href="#f2_1" transform="matrix(7,0,0,7,571.3,288.2)" />
</g>
<text 
x="561" 
y="288" 
dx="0" 
class="s6_1"
>-</text>

<text 
x="571" 
y="288" 
dx="0" 
class="s3_1"
>1</text>

<path d="M290.4,414.4c0,-12,-9.7,-21.7,-21.7,-21.7c-12,0,-21.6,9.7,-21.6,21.7c0,12,9.6,21.6,21.6,21.6c12,0,21.7,-9.6,21.7,-21.6Z" class="g2_1" />
<path d="M387.8,414.4c0,-12,-9.7,-21.7,-21.7,-21.7c-11.9,0,-21.6,9.7,-21.6,21.7c0,12,9.7,21.6,21.6,21.6c12,0,21.7,-9.6,21.7,-21.6Z" class="g2_1" />
<g fill="#000000" >
<use xlink:href="#f1_1" transform="matrix(39.9,0,0,39.9,428.1,418.7)" />
<use xlink:href="#f1_1" transform="matrix(39.9,0,0,39.9,455.2,418.7)" />
<use xlink:href="#f1_1" transform="matrix(39.9,0,0,39.9,482.2,418.7)" />
</g>
<text 
x="428" 
y="418" 
dx="0,0,-5.1,0,-5.1" 
class="s4_1"
>. . .</text>

<path d="M582.7,414.4c0,-12,-9.7,-21.7,-21.7,-21.7c-11.9,0,-21.6,9.7,-21.6,21.7c0,12,9.7,21.6,21.6,21.6c12,0,21.7,-9.6,21.7,-21.6Z" class="g2_1" />
<g fill="#000000" >
<use xlink:href="#f5_3" transform="matrix(10,0,0,10,261.9,548.4)" />
<use xlink:href="#f1_2" transform="matrix(10,0,0,10,260.9,548.4)" />
</g>
<text 
x="261" 
y="548" 
dx="0" 
class="s7_1"
>ˆ</text>

<g fill="#000000" >
<use xlink:href="#f2_2" transform="matrix(7,0,0,7,269.6,550.7)" />
</g>
<text 
x="260" 
y="548" 
dx="0" 
class="s2_1"
>x</text>

<g fill="#000000" >
<use xlink:href="#f5_3" transform="matrix(10,0,0,10,359.4,548.4)" />
</g>
<text 
x="269" 
y="550" 
dx="0" 
class="s3_1"
>0</text>

<g fill="#000000" >
<use xlink:href="#f1_2" transform="matrix(10,0,0,10,358.4,548.4)" />
</g>
<text 
x="359" 
y="548" 
dx="0" 
class="s7_1"
>ˆ</text>

<g fill="#000000" >
<use xlink:href="#f2_1" transform="matrix(7,0,0,7,367.1,550.7)" />
</g>
<text 
x="358" 
y="548" 
dx="0" 
class="s2_1"
>x</text>

<g fill="#000000" >
<use xlink:href="#f1_1" transform="matrix(39.9,0,0,39.9,428.1,548.6)" />
</g>
<text 
x="367" 
y="550" 
dx="0" 
class="s3_1"
>1</text>

<g fill="#000000" >
<use xlink:href="#f1_1" transform="matrix(39.9,0,0,39.9,455.2,548.6)" />
<use xlink:href="#f1_1" transform="matrix(39.9,0,0,39.9,482.2,548.6)" />
<use xlink:href="#f5_3" transform="matrix(10,0,0,10,545.7,547.8)" />
</g>
<text 
x="428" 
y="548" 
dx="0,0,-5.1,0,-5.1" 
class="s4_1"
>. . .</text>

<g fill="#000000" >
<use xlink:href="#f1_2" transform="matrix(10,0,0,10,544.7,547.8)" />
</g>
<text 
x="545" 
y="547" 
dx="0" 
class="s7_1"
>ˆ</text>

<g fill="#000000" >
<use xlink:href="#f3_2" transform="matrix(7,0,0,7,553.4,550.1)" />
</g>
<text 
x="544" 
y="547" 
dx="0" 
class="s2_1"
>x</text>

<g fill="#000000" >
<use xlink:href="#f4_1" transform="matrix(7,0,0,7,561,550.1)" />
</g>
<text 
x="553" 
y="550" 
dx="0" 
class="s5_1"
>n</text>

<g fill="#000000" >
<use xlink:href="#f2_1" transform="matrix(7,0,0,7,570.5,550.1)" />
</g>
<text 
x="560" 
y="550" 
dx="0" 
class="s6_1"
>-</text>

<text 
x="570" 
y="550" 
dx="0" 
class="s3_1"
>1</text>

<path d="M184.4,42.2l69.2,92.2" class="g2_1" />
<path d="M255.5,136.9l-1,-5.4l-0.9,2.9l-3,0Z" class="g3_1" />
<path d="M268.7,40.8l0,88.7" class="g2_1" />
<path d="M268.7,132.6l2.4,-4.9l-2.4,1.8l-2.4,-1.8Z" class="g3_1" />
<path d="M356.4,37.6l-72.6,96.9" class="g2_1" />
<path d="M281.9,136.9l4.9,-2.4l-3,0l-0.9,-3Z" class="g3_1" />
<path d="M539.2,34.3L291.6,144.4" class="g2_1" />
<path d="M288.8,145.6l5.5,0.3l-2.7,-1.5l0.7,-3Z" class="g3_1" />
<path d="M189.6,36.8L345.3,140.6" class="g2_1" />
<path d="M347.8,142.3l-2.7,-4.7l0.2,3l-2.9,1.1Z" class="g3_1" />
<path d="M278.4,37.6l72.7,96.9" class="g2_1" />
<path d="M352.9,136.9l-1,-5.4l-0.8,3l-3.1,0Z" class="g3_1" />
<path d="M366.1,40.8l0,88.7" class="g2_1" />
<path d="M366.1,132.6l2.5,-4.9l-2.5,1.8l-2.4,-1.8Z" class="g3_1" />
<path d="M541.1,37.9L387,140.6" class="g2_1" />
<path d="M384.5,142.3l5.4,-0.6L387,140.6l0.2,-3Z" class="g3_1" />
<path d="M192.1,31.6l345.2,115" class="g2_1" />
<path d="M540.2,147.6l-3.9,-3.9l1,2.9l-2.5,1.8Z" class="g3_1" />
<path d="M283.5,31.2L538.1,144.4" class="g2_1" />
<path d="M540.9,145.6l-3.4,-4.2l0.6,3l-2.6,1.5Z" class="g3_1" />
<path d="M379.7,33.6l160.5,107" class="g2_1" />
<path d="M542.7,142.3L540,137.6l0.2,3l-2.9,1.1Z" class="g3_1" />
<path d="M561,48.5l0,81" class="g2_1" />
<path d="M561,132.6l2.5,-4.9l-2.5,1.8l-2.4,-1.8Z" class="g3_1" />
<path d="M268.7,176.5l0,89.4" class="g2_1" />
<path d="M268.7,268.9l2.4,-4.8l-2.4,1.8l-2.4,-1.8Z" class="g3_1" />
<path d="M366.1,176.5l0,89.4" class="g2_1" />
<path d="M366.1,268.9l2.5,-4.8l-2.5,1.8l-2.4,-1.8Z" class="g3_1" />
<path d="M561,176.5l0,80.4" class="g2_1" />
<path d="M561,259.9l2.5,-4.9l-2.5,1.9L558.6,255Z" class="g3_1" />
<path d="M184.4,302l69.2,92.3" class="g2_1" />
<path d="M255.5,396.7l-1,-5.3l-0.9,2.9l-3,0Z" class="g3_1" />
<path d="M268.7,300l0,89.4" class="g2_1" />
<path d="M268.7,392.4l2.4,-4.8l-2.4,1.8l-2.4,-1.8Z" class="g3_1" />
<path d="M356.8,296.9l-73,97.4" class="g2_1" />
<path d="M281.9,396.7l4.9,-2.4l-3,0l-0.9,-2.9Z" class="g3_1" />
<path d="M538.5,294.5L291.6,404.2" class="g2_1" />
<path d="M288.8,405.5l5.5,0.2l-2.7,-1.5l0.7,-3Z" class="g3_1" />
<path d="M189.6,296.7L345.3,400.5" class="g2_1" />
<path d="M347.8,402.2l-2.7,-4.8l0.2,3.1l-2.9,1Z" class="g3_1" />
<path d="M278,296.9l73.1,97.4" class="g2_1" />
<path d="M352.9,396.7l-1,-5.3l-0.8,2.9l-3.1,0Z" class="g3_1" />
<path d="M366.1,300l0,89.4" class="g2_1" />
<path d="M366.1,392.4l2.5,-4.8l-2.5,1.8l-2.4,-1.8Z" class="g3_1" />
<path d="M540.5,298.1L387,400.5" class="g2_1" />
<path d="M384.5,402.2l5.4,-0.7l-2.9,-1l0.2,-3.1Z" class="g3_1" />
<path d="M192.1,291.4L537.3,406.5" class="g2_1" />
<path d="M540.2,407.4l-3.9,-3.8l1,2.9l-2.5,1.7Z" class="g3_1" />
<path d="M282.9,290.8L538.1,404.2" class="g2_1" />
<path d="M540.9,405.5l-3.4,-4.3l0.6,3l-2.6,1.5Z" class="g3_1" />
<path d="M379.1,293.1L540.2,400.5" class="g2_1" />
<path d="M542.7,402.2L540,397.4l0.2,3.1l-2.9,1Z" class="g3_1" />
<path d="M561,309l0,80.4" class="g2_1" />
<path d="M561,392.4l2.5,-4.8l-2.5,1.8l-2.4,-1.8Z" class="g3_1" />
<path d="M268.7,436.4l0,87.4" class="g2_1" />
<path d="M268.7,526.8l2.4,-4.9l-2.4,1.9l-2.4,-1.9Z" class="g3_1" />
<path d="M366.1,436.4l0,87.4" class="g2_1" />
<path d="M366.1,526.8l2.5,-4.9l-2.5,1.9l-2.4,-1.9Z" class="g3_1" />
<path d="M561,436.4l0,80.2" class="g2_1" />
<path d="M561,519.6l2.5,-4.9l-2.5,1.9l-2.4,-1.9Z" class="g3_1" />
<g fill="#000000" >
<use xlink:href="#f0_8" transform="matrix(10,0,0,10,39.2,28.4)" />
<use xlink:href="#f0_a" transform="matrix(10,0,0,10,44.7,28.4)" />
<use xlink:href="#f0_d" transform="matrix(10,0,0,10,53.1,28.4)" />
<use xlink:href="#f0_h" transform="matrix(10,0,0,10,61.6,28.4)" />
<use xlink:href="#f0_g" transform="matrix(10,0,0,10,70.1,28.4)" />
<use xlink:href="#f0_6" transform="matrix(10,0,0,10,30.2,159.8)" />
</g>
<text 
x="39" 
y="28" 
dx="0,0,0,0,0" 
class="s1_1"
>Input</text>

<g fill="#000000" >
<use xlink:href="#f0_a" transform="matrix(10,0,0,10,40.5,159.8)" />
<use xlink:href="#f0_2" transform="matrix(10,0,0,10,49,159.8)" />
<use xlink:href="#f0_b" transform="matrix(10,0,0,10,55.8,159.8)" />
<use xlink:href="#f0_5" transform="matrix(10,0,0,10,63.8,159.8)" />
<use xlink:href="#f0_7" transform="matrix(10,0,0,10,72.3,159.8)" />
<use xlink:href="#f0_e" transform="matrix(10,0,0,10,79,159.8)" />
<use xlink:href="#f0_9" transform="matrix(10,0,0,10,35.7,279.1)" />
</g>
<text 
x="30" 
y="159" 
dx="0,0,0,0,0.4,0,0" 
class="s1_1"
>Encoder</text>

<g fill="#000000" >
<use xlink:href="#f0_1" transform="matrix(10,0,0,10,45.2,279.1)" />
<use xlink:href="#f0_g" transform="matrix(10,0,0,10,52.8,279.1)" />
<use xlink:href="#f0_7" transform="matrix(10,0,0,10,58.7,279.1)" />
<use xlink:href="#f0_a" transform="matrix(10,0,0,10,65.5,279.1)" />
<use xlink:href="#f0_g" transform="matrix(10,0,0,10,73.5,279.1)" />
<use xlink:href="#f0_e" transform="matrix(10,0,0,10,10.4,297.4)" />
</g>
<text 
x="35" 
y="279" 
dx="0,0,0,0,0,-0.4" 
class="s1_1"
>Latent</text>

<g fill="#000000" >
<use xlink:href="#f0_7" transform="matrix(10,0,0,10,16.3,297.4)" />
<use xlink:href="#f0_d" transform="matrix(10,0,0,10,23.1,297.4)" />
<use xlink:href="#f0_e" transform="matrix(10,0,0,10,31.5,297.4)" />
<use xlink:href="#f0_7" transform="matrix(10,0,0,10,37.5,297.4)" />
<use xlink:href="#f0_f" transform="matrix(10,0,0,10,44.3,297.4)" />
<use xlink:href="#f0_7" transform="matrix(10,0,0,10,50.3,297.4)" />
<use xlink:href="#f0_a" transform="matrix(10,0,0,10,57,297.4)" />
<use xlink:href="#f0_g" transform="matrix(10,0,0,10,65.1,297.4)" />
<use xlink:href="#f0_1" transform="matrix(10,0,0,10,71,297.4)" />
<use xlink:href="#f0_g" transform="matrix(10,0,0,10,78.6,297.4)" />
<use xlink:href="#f0_i" transform="matrix(10,0,0,10,84.5,297.4)" />
<use xlink:href="#f0_b" transform="matrix(10,0,0,10,88.7,297.4)" />
<use xlink:href="#f0_a" transform="matrix(10,0,0,10,96.4,297.4)" />
<use xlink:href="#f0_4" transform="matrix(10,0,0,10,30.4,419.6)" />
</g>
<text 
x="10" 
y="297" 
dx="0,0,0,0,0,0,0,0,-0.4,0,0,0,0,0" 
class="s1_1"
>representation</text>

<g fill="#000000" >
<use xlink:href="#f0_7" transform="matrix(10,0,0,10,42,419.6)" />
<use xlink:href="#f0_2" transform="matrix(10,0,0,10,48.8,419.6)" />
<use xlink:href="#f0_b" transform="matrix(10,0,0,10,55.6,419.6)" />
<use xlink:href="#f0_5" transform="matrix(10,0,0,10,63.6,419.6)" />
<use xlink:href="#f0_7" transform="matrix(10,0,0,10,72,419.6)" />
<use xlink:href="#f0_e" transform="matrix(10,0,0,10,78.8,419.6)" />
<use xlink:href="#f0_8" transform="matrix(10,0,0,10,39.2,540.4)" />
</g>
<text 
x="30" 
y="419" 
dx="0,0,0,0,0.4,0,0" 
class="s1_1"
>Decoder</text>

<g fill="#000000" >
<use xlink:href="#f0_a" transform="matrix(10,0,0,10,44.7,540.4)" />
<use xlink:href="#f0_d" transform="matrix(10,0,0,10,53.1,540.4)" />
<use xlink:href="#f0_h" transform="matrix(10,0,0,10,61.6,540.4)" />
<use xlink:href="#f0_g" transform="matrix(10,0,0,10,70.1,540.4)" />
<use xlink:href="#f0_e" transform="matrix(10,0,0,10,10.1,558.7)" />
</g>
<text 
x="39" 
y="540" 
dx="0,0,0,0,0" 
class="s1_1"
>Input</text>

<g fill="#000000" >
<use xlink:href="#f0_7" transform="matrix(10,0,0,10,16.1,558.7)" />
<use xlink:href="#f0_2" transform="matrix(10,0,0,10,22.9,558.7)" />
<use xlink:href="#f0_b" transform="matrix(10,0,0,10,29.6,558.7)" />
<use xlink:href="#f0_a" transform="matrix(10,0,0,10,37.2,558.7)" />
<use xlink:href="#f0_f" transform="matrix(10,0,0,10,45.7,558.7)" />
<use xlink:href="#f0_g" transform="matrix(10,0,0,10,51.7,558.7)" />
<use xlink:href="#f0_e" transform="matrix(10,0,0,10,57.6,558.7)" />
<use xlink:href="#f0_h" transform="matrix(10,0,0,10,63.6,558.7)" />
<use xlink:href="#f0_2" transform="matrix(10,0,0,10,72,558.7)" />
<use xlink:href="#f0_g" transform="matrix(10,0,0,10,78.8,558.7)" />
<use xlink:href="#f0_i" transform="matrix(10,0,0,10,84.7,558.7)" />
<use xlink:href="#f0_b" transform="matrix(10,0,0,10,89,558.7)" />
<use xlink:href="#f0_a" transform="matrix(10,0,0,10,96.6,558.7)" />
</g>
<text 
x="10" 
y="558" 
dx="0,0,0,0,0,0,0,0,0,0,0,0,0,0" 
class="s1_1"
>reconstruction</text>


<defs>
	<path d="M145.1,0l0,47.4l48.9,0c137.5,0,142.1,18.3,142.1,73.3l0,791.4C256.7,872.4,166.5,872.4,136,872.4l0,47.3c48.9,0,183.3,0,278,97.8c35.2,0,35.2,-3.1,35.2,-39.7l0,-857.1c0,-56.5,4.6,-73.3,142.1,-73.3l48.8,0L640.1,0C586.7,4.6,453.8,4.6,392.6,4.6c-61.1,0,-194,0,-247.5,-4.6Z" 
	id="f0_c"
	transform="scale(0.001,-0.001)" />

	<path d="M187.9,-16.7C120.7,-16.7,44.3,13.8,44.3,84c0,48.9,38.2,88.6,84,88.6c23,0,56.6,-12.2,56.6,-53.4c0,-42.8,-33.6,-74.9,-71.8,-82.5c32,-19.9,67.2,-19.9,76.3,-19.9c67.3,0,120.7,64.2,145.2,158.9c56.5,213.9,82.5,316.2,82.5,363.6c0,88.6,-53.5,102.4,-82.5,102.4c-52,0,-152.8,-38.2,-204.7,-200.2C126.8,427.8,122.2,424.7,110,424.7c0,0,-18.3,0,-18.3,15.3c0,38.2,87.1,235.3,245.9,235.3c44.3,0,126.8,-15.3,165,-116.1c18.4,35.1,71.8,116.1,160.5,116.1c51.9,0,142,-21.4,142,-100.9c0,-61.1,-48.8,-88.6,-82.5,-88.6c-41.2,0,-58,29.1,-58,53.5c0,36.7,30.5,74.9,73.3,82.5c-32.1,19.9,-68.7,19.9,-76.4,19.9C554.6,641.7,519.4,501.1,510.3,461.4l-52,-209.3C441.5,184.9,432.4,151.3,432.4,117.6c0,-51.9,24.4,-100.8,84,-100.8c48.9,0,152.8,36.7,203.2,200.1c3,10.7,6.1,16.9,19.8,16.9c4.6,0,18.4,0,18.4,-15.3c0,-38.2,-87.1,-235.2,-244.5,-235.2c-91.6,0,-146.6,59.5,-165,116c-4.5,-9.2,-59.5,-116,-160.4,-116Z" 
	id="f1_2"
	transform="scale(0.001,-0.001)" />

	<path d="M433.9,12.2c61.1,0,165,33.6,195.5,172.7c19.9,96.2,19.9,209.3,19.9,322.3c0,132.9,-1.5,242.9,-26,325.4C595.8,921.3,516.4,971.7,433.9,971.7c-62.6,0,-160.4,-32.1,-192.5,-152.8C218.5,734.9,218.5,618.8,218.5,507.2c0,-113,0,-238.3,21.4,-328.4C270.4,53.5,363.6,12.2,433.9,12.2Zm0,-42.7C79.4,-30.5,79.4,377.4,79.4,487.4c0,110,0,527,354.5,527c122.2,0,216.9,-61.1,264.3,-131.3c70.3,-107,90.1,-227.7,90.1,-395.7c0,-110,0,-517.9,-354.4,-517.9Z" 
	id="f2_2"
	transform="scale(0.001,-0.001)" />

	<path d="M177.2,0l0,55l58.1,0c152.8,0,152.8,19.9,152.8,70.3l0,779.1C304,861.7,203.2,861.7,166.5,861.7l0,55c62.7,0,201.7,1.5,299.5,97.7c42.8,0,45.8,-1.5,45.8,-42.7l0,-846.4c0,-50.4,0,-70.3,152.8,-70.3l58,0l0,-55L449.2,6.1L177.2,0Z" 
	id="f2_1"
	transform="scale(0.001,-0.001)" />

	<path d="M212.4,0c-44.3,0,-81,36.7,-81,81c0,44.3,36.7,80.9,81,80.9c44.3,0,80.9,-36.6,80.9,-80.9C293.3,36.7,256.7,0,212.4,0Z" 
	id="f1_1"
	transform="scale(0.001,-0.001)" />

	<path d="M223.1,-15.2c-24.5,0,-52,15.2,-52,48.8c0,4.6,9.2,42.8,15.3,62.7l48.9,195.5l33.6,137.5c10.7,41.3,24.4,97.8,24.4,126.8c0,41.3,-10.7,74.9,-50.4,74.9C183.3,631,154.3,556.1,131.4,466C120.7,424.7,119.2,420.1,97.8,420.1c-4.6,0,-26,0,-26,19.9c0,7.6,21.4,94.7,55,151.3c19.9,35.1,55,82.5,120.7,82.5c62.6,0,152.8,-33.7,163.5,-139.1c45.8,61.1,131.4,139.1,258.2,139.1c80.9,0,198.6,-26,198.6,-174.2c0,-85.6,-62.7,-247.5,-81,-294.9C759.3,136,751.7,116.1,751.7,81c0,-32.1,6.1,-53.5,38.2,-53.5c61.1,0,126.8,62.6,161.9,184.9c6.1,16.8,7.6,25.9,29,25.9c4.6,0,24.5,0,24.5,-19.8c0,-22.9,-67.2,-233.7,-220,-233.7c-77.9,0,-145.2,50.3,-145.2,131.3c0,26,6.2,39.7,23,82.5c24.4,64.2,90.1,233.8,90.1,325.4c0,29.1,-1.5,107,-90.1,107C548.5,631,476.7,551.5,433.9,490.4C389.6,427.8,386.5,415.6,369.7,352.9C362.1,317.8,352.9,284.2,343.8,250.6L310.1,113.1C302.5,81,290.3,32.1,282.6,18.3C275,4.6,250.6,-15.2,223.1,-15.2Z" 
	id="f3_2"
	transform="scale(0.001,-0.001)" />

	<path d="M221.5,345.3c-19.8,0,-56.5,0,-56.5,36.6c0,38.2,35.1,38.2,56.5,38.2l919.8,0c21.3,0,56.5,0,56.5,-38.2c0,-36.6,-36.7,-36.6,-56.5,-36.6Z" 
	id="f4_1"
	transform="scale(0.001,-0.001)" />

	<path d="M84,-16.7c0,0,-18.3,0,-18.3,15.3c0,10.6,53.5,97.7,157.4,200L360.6,326.9c29,24.5,157.3,134.5,212.3,200.2c-39.7,0,-56.5,0,-117.6,22.9c-35.2,12.2,-64.2,22.9,-96.3,22.9c-12.2,0,-100.8,-1.5,-129.8,-71.8c-3.1,-9.2,-6.1,-16.8,-19.9,-16.8c-13.7,0,-18.3,9.2,-18.3,16.8c0,32.1,70.3,174.2,184.8,174.2c50.5,0,76.4,-30.6,105.5,-65.7c22.9,-26,41.2,-48.9,77.9,-48.9c36.6,0,68.7,24.4,114.6,97.8c7.6,13.7,12.2,16.8,22.9,16.8c0,0,16.8,0,16.8,-15.3c0,-6.1,-33.6,-79.4,-178.8,-221.5C479.7,383.5,385,301,385,301C330,253.6,285.7,215.4,203.2,126.8c13.7,4.6,41.2,4.6,41.2,4.6c32.1,0,55,-6.1,107,-26C383.5,94.7,411,85.6,441.5,85.6c50.4,0,148.2,29,183.4,128.3c4.5,10.7,7.6,19.9,21.4,19.9c12.2,0,18.3,-7.7,18.3,-15.3C664.6,177.2,576,-16.7,424.7,-16.7c-44.3,0,-71.8,24.3,-97.8,56.4C288.8,84,273.5,97.8,238.3,97.8C189.4,97.8,143.6,56.5,108.5,3.1C99.3,-13.7,96.3,-16.7,84,-16.7Z" 
	id="f1_3"
	transform="scale(0.001,-0.001)" />

	<path d="M223.1,-15.2c-24.5,0,-52,15.2,-52,48.8c0,4.6,9.2,42.8,15.3,62.7l48.9,195.5l33.6,137.5c10.7,41.3,24.4,97.8,24.4,126.8c0,41.3,-10.7,74.9,-50.4,74.9C183.3,631,154.3,556.1,131.4,466C120.7,424.7,119.2,420.1,97.8,420.1c-4.6,0,-26,0,-26,19.9c0,7.6,21.4,94.7,55,151.3c19.9,35.1,55,82.5,120.7,82.5c62.6,0,152.8,-33.7,163.5,-139.1c45.8,61.1,131.4,139.1,258.2,139.1c77.9,0,186.4,-24.5,198.6,-154.4c48.9,64.2,132.9,154.4,270.4,154.4c71.8,0,116.1,-21.4,142.1,-41.3c56.5,-44.3,56.5,-108.5,56.5,-132.9c0,-85.6,-62.6,-247.5,-81,-294.9C1228.3,136,1220.7,116.1,1220.7,81c0,-32.1,6.1,-53.5,38.2,-53.5c61.1,0,126.8,62.6,161.9,184.9c6.1,16.8,7.7,25.9,29.1,25.9c4.5,0,24.4,0,24.4,-19.8c0,-22.9,-67.2,-233.7,-220,-233.7c-77.9,0,-145.1,50.3,-145.1,131.3c0,26,6.1,39.7,22.9,82.5c24.4,64.2,90.1,233.8,90.1,325.4c0,36.7,-4.6,107,-90.1,107C1012.9,631,936.5,543.9,887.6,469C857.1,421.7,857.1,418.6,840.3,352.9c-7.7,-35.1,-16.8,-68.7,-26,-102.3L780.7,113.1C773.1,81,760.8,32.1,753.2,18.3C745.6,4.6,721.1,-15.2,693.6,-15.2c-24.4,0,-51.9,15.2,-51.9,48.8c0,7.7,13.7,59.6,21.4,90.2l64.1,256.6c21.4,85.6,26,105.4,26,143.6c0,29.1,-1.5,107,-90.1,107C548.5,631,476.7,551.5,433.9,490.4C389.6,427.8,386.5,415.6,369.7,352.9C362.1,317.8,352.9,284.2,343.8,250.6L310.1,113.1C302.5,81,290.3,32.1,282.6,18.3C275,4.6,250.6,-15.2,223.1,-15.2Z" 
	id="f3_1"
	transform="scale(0.001,-0.001)" />

	<path d="M169.6,788.3l-19.9,21.4l232.2,247.5L614.2,809.7L594.3,788.3l-212.4,165L169.6,788.3Z" 
	id="f5_3"
	transform="scale(0.001,-0.001)" />

	<path d="M42.8,0l0,47.4l39.7,0c120.7,0,125.3,16.8,125.3,71.8l0,805.1c0,55,-4.6,71.8,-125.3,71.8l-39.7,0l0,47.4c53.5,-4.6,174.1,-4.6,233.7,-4.6c58.1,0,178.8,0,232.3,4.6l0,-47.4l-39.8,0c-120.7,0,-125.2,-16.8,-125.2,-71.8l0,-805.1c0,-55,4.5,-71.8,125.2,-71.8l39.8,0L508.8,0C455.3,4.6,334.6,4.6,275,4.6C216.9,4.6,96.3,4.6,42.8,0Z" 
	id="f0_8"
	transform="scale(0.001,-0.001)" />

	<path d="M48.9,0l0,47.4c102.4,0,119.2,0,119.2,68.7l0,409.5c0,74.8,-12.3,85.5,-119.2,85.5l0,47.4l215.4,16.8l0,-160.4c42.8,94.7,114.6,160.4,226.1,160.4c88.6,0,139,-30.6,160.4,-56.5c47.4,-55,47.4,-102.4,47.4,-233.8l0,-291.8C699.7,47.4,737.9,47.4,817.4,47.4L817.4,0L646.3,4.6L473.6,0l0,47.4c102.4,0,119.2,0,119.2,68.7l0,356c0,87.1,-16.8,169.6,-113.1,169.6c-97.8,0,-206.2,-85.6,-206.2,-244.5l0,-281.1c0,-68.7,16.8,-68.7,119.1,-68.7L392.6,0L221.5,4.6L48.9,0Z" 
	id="f0_a"
	transform="scale(0.001,-0.001)" />

	<path d="M449.2,16.8c113,0,220,128.3,220,313.2c0,172.6,-93.2,307.1,-204.8,307.1c-77.9,0,-152.7,-44.3,-197,-122.2l0,-340.7c0,-30.6,0,-32.1,21.4,-64.2C330,47.4,388.1,16.8,449.2,16.8ZM42.8,-296.3l0,47.4c102.3,0,119.1,0,119.1,68.7l0,714.9c0,67.2,-10.6,76.4,-119.1,76.4l0,47.4l220,16.8l0,-100.9c30.5,33.7,94.7,100.9,213.9,100.9C647.8,675.3,796,524,796,330C796,132.9,637.1,-16.7,455.3,-16.7C339.2,-16.7,275,65.7,267.4,90.1l0,-13.7l0,-256.6c0,-68.7,16.8,-68.7,119.1,-68.7l0,-47.4l-172.6,4.6L42.8,-296.3Z" 
	id="f0_d"
	transform="scale(0.001,-0.001)" />

	<path d="M400.3,-16.7c-232.2,0,-232.2,138.9,-232.2,258.1l0,229.2c0,135.9,0,140.5,-119.2,140.5l0,47.4l224.6,16.8l0,-507.2c0,-79.5,6.1,-151.3,134.4,-151.3c111.5,0,184.9,103.9,184.9,236.8l0,272c0,74.8,-12.2,85.5,-119.2,85.5l0,47.4l224.6,16.8l0,-542.4c0,-74.8,12.2,-85.5,119.2,-85.5L817.4,0l-220,-16.7l0,137.4C553.1,26,485.8,-16.7,400.3,-16.7Z" 
	id="f0_h"
	transform="scale(0.001,-0.001)" />

	<path d="M356,-16.7c-55,0,-197.1,18.2,-197.1,206.1l0,421.7L29,611.1l0,33.6c149.8,6.1,195.6,169.6,197.1,294.9l38.2,0l0,-281.1l218.5,0l0,-47.4l-218.5,0l0,-424.7c0,-26,0,-165,102.4,-165c56.5,0,102.3,58,102.3,171.1l0,84l38.2,0l0,-87.1C507.2,91.7,464.4,-16.7,356,-16.7Z" 
	id="f0_g"
	transform="scale(0.001,-0.001)" />

	<path d="M50.4,0l0,47.4l36.7,0c117.6,0,120.7,16.8,120.7,71.8l0,800.5c0,55,-3.1,71.8,-120.7,71.8l-36.7,0l0,47.4l860.2,0L953.3,695.1l-38.2,0C890.7,907.5,849.4,991.5,615.7,991.5l-197.1,0c-71.8,0,-74.8,-10.7,-74.8,-61.1l0,-366.6l137.5,0c148.1,0,165,47.3,165,178.7l38.1,0l0,-404.9l-38.1,0c0,129.9,-16.9,178.8,-165,178.8l-137.5,0l0,-407.9c0,-50.4,3,-61.1,74.8,-61.1l203.2,0c262.8,0,297.9,111.5,336.1,346.8l38.2,0L931.9,0Z" 
	id="f0_6"
	transform="scale(0.001,-0.001)" />

	<path d="M380.4,-16.7C203.2,-16.7,51.9,134.4,51.9,330c0,189.4,140.6,354.4,331.6,354.4c117.6,0,233.7,-59.5,233.7,-163.4c0,-45.9,-30.5,-71.8,-70.3,-71.8c-42.7,0,-70.2,30.5,-70.2,70.2c0,19.9,9.1,65.7,71.8,70.3C495,644.7,398.8,646.3,385,646.3c-81,0,-206.2,-64.2,-206.2,-313.2C178.8,87.1,313.2,21.4,394.2,21.4c56.5,0,155.8,18.3,200.1,160.4c3.1,9.2,6.1,15.3,19.9,15.3c4.6,0,19.8,0,19.8,-15.3C634,166.5,585.1,-16.7,380.4,-16.7Z" 
	id="f0_2"
	transform="scale(0.001,-0.001)" />

	<path d="M381.9,21.4c76.4,0,143.7,44.3,177.3,113c33.6,67.3,33.6,149.8,33.6,204.8c0,58,0,146.6,-39.7,212.3c-39.8,65.7,-105.5,99.3,-172.7,99.3c-61.1,0,-132.9,-32,-174.1,-102.3C169.6,481.3,169.6,398.8,169.6,339.2c0,-55,0,-148.2,38.2,-215.4C249,53.5,316.3,21.4,381.9,21.4Zm-1.5,-38.1C201.7,-16.7,42.8,129.9,42.8,326.9c0,191,148.2,357.5,339.1,357.5c184.9,0,337.7,-161.9,337.7,-357.5c0,-194,-154.3,-343.6,-339.2,-343.6Z" 
	id="f0_b"
	transform="scale(0.001,-0.001)" />

	<path d="M383.5,16.8c65.7,0,134.4,33.6,180.3,107c16.8,25.9,16.8,29,16.8,56.5l0,313.2c0,27.5,0,30.5,-16.8,56.5c-47.4,68.8,-111.6,91.7,-165,91.7c-82.5,0,-140.6,-50.4,-172.7,-97.8C181.8,475.1,178.8,383.5,178.8,326.9c0,-62.6,4.5,-149.7,44.3,-212.3C259.7,56.5,314.7,16.8,383.5,16.8Zm-7.7,-33.5C201.7,-16.7,51.9,134.4,51.9,328.5c0,197.1,160.5,346.8,340.7,346.8c82.5,0,148.2,-39.7,192.5,-94.7l0,330c0,74.8,-12.2,85.5,-119.1,85.5l0,47.4l220,16.8l0,-927.4C686,58.1,698.2,47.4,805.1,47.4L805.1,0L580.6,-16.7l0,100.7C542.4,35.1,473.6,-16.7,375.8,-16.7Z" 
	id="f0_5"
	transform="scale(0.001,-0.001)" />

	<path d="M533.2,385c0,59.6,-15.3,265.8,-172.6,265.8c-52,0,-180.3,-38.2,-189.5,-265.8ZM378.9,-16.7C203.2,-16.7,42.8,131.4,42.8,336.1c0,191,140.5,348.3,317.8,348.3C551.5,684.4,634,536.3,634,385c0,-32.1,-4.6,-32.1,-38.2,-32.1l-426.2,0c0,-55,0,-155.8,45.8,-229.1C250.6,67.2,311.7,21.4,388.1,21.4c15.2,0,152.7,0,206.2,157.4c3.1,12.2,6.1,21.3,19.9,21.3c7.6,0,19.8,-3,19.8,-18.3c0,-29,-68.7,-198.5,-255.1,-198.5Z" 
	id="f0_7"
	transform="scale(0.001,-0.001)" />

	<path d="M42.8,0l0,47.4c102.3,0,119.1,0,119.1,68.7l0,409.5c0,74.8,-12.2,85.5,-119.1,85.5l0,47.4l212.3,16.8l0,-168.1c21.4,65.7,76.4,168.1,188,168.1c65.7,0,113,-44.3,113,-93.2c0,-48.9,-38.2,-67.2,-65.7,-67.2c-33.6,0,-65.7,22.9,-65.7,65.7c0,39.7,30.6,58,35.2,59.5c-3.1,1.6,-6.1,1.6,-16.8,1.6c-116.2,0,-180.3,-136,-180.3,-287.3l0,-235.2c0,-55,3,-71.8,116.1,-71.8l32.1,0L411,0C349.9,4.6,278.1,4.6,216.9,4.6L42.8,0Z" 
	id="f0_e"
	transform="scale(0.001,-0.001)" />

	<path d="M50.4,0l0,47.4l36.7,0c117.6,0,120.7,16.8,120.7,71.8l0,805.1c0,55,-3.1,71.8,-120.7,71.8l-36.7,0l0,47.4c53.5,-4.6,172.7,-4.6,232.2,-4.6c62.7,0,201.7,0,256.7,4.6l0,-47.4l-50.4,0c-145.1,0,-145.1,-21.4,-145.1,-73.3l0,-814.3c0,-50.4,3,-61.1,74.8,-61.1l125.3,0c268.9,0,290.3,190.9,307.1,346.8l38.2,0L846.4,0Z" 
	id="f0_9"
	transform="scale(0.001,-0.001)" />

	<path d="M304,16.8c68.8,0,178.8,52,178.8,197.1l0,152.8C230.7,357.5,166.5,230.7,166.5,146.7C166.5,70.3,229.2,16.8,304,16.8ZM293.3,-16.7C197.1,-16.7,48.9,21.4,48.9,145.1c0,67.3,38.2,146.7,152.8,198.7c96.2,45.8,203.2,50.4,281.1,55l0,56.5c0,136,-87.1,195.5,-162,195.5c-48.9,0,-123.7,-16.8,-165,-70.2c70.3,-1.6,78,-52,78,-70.3C233.8,470.6,206.3,440,163.5,440c-39.7,0,-70.3,26,-70.3,71.8c0,100.8,105.4,172.6,230.7,172.6c73.3,0,149.7,-24.4,209.3,-84c55,-56.5,55,-116.1,55,-180.3l0,-305.5c0,-7.7,6.1,-76.4,56.5,-76.4c16.8,0,55,9.2,55,97.8l0,85.5l38.2,0l0,-85.5C737.9,12.2,644.7,-9.1,612.6,-9.1c-71.8,0,-113,64.1,-119.1,125.2C464.4,44.3,394.2,-16.7,293.3,-16.7Z" 
	id="f0_1"
	transform="scale(0.001,-0.001)" />

	<path d="M67.2,-16.7C50.4,-16.7,50.4,-6,50.4,19.9l0,201.6c0,27.5,0,38.2,19.9,38.2c15.3,0,16.8,-6.1,21.4,-25.9c29,-129.9,84,-217,212.3,-217c119.2,0,172.7,61.1,172.7,139c0,110,-125.3,134.5,-158.9,140.6C207.8,317.8,165,326.9,116.1,366.7C74.9,400.3,50.4,443.1,50.4,496.5c0,85.6,58.1,187.9,244.5,187.9c22.9,0,85.5,0,143.6,-42.7c6.1,4.6,21.4,18.3,25.9,24.4c19.9,18.3,23,18.3,30.6,18.3c16.8,0,16.8,-10.6,16.8,-36.6l0,-154.3c0,-29.1,0,-36.7,-19.9,-36.7c0,0,-16.8,0,-18.3,13.8c-3,47.3,-10.7,184.8,-178.7,184.8C163.5,655.4,123.8,592.8,123.8,539.3C123.8,450.7,226.1,430.8,311.7,414c64.1,-12.2,123.7,-24.4,174.1,-73.3C504.2,322.4,550,276.5,550,195.6C550,85.6,479.7,-16.7,304,-16.7c-32.1,0,-100.8,1.5,-168,65.6C108.5,19.9,108.5,16.8,105.4,13.8c-29,-29,-30.5,-30.5,-38.2,-30.5Z" 
	id="f0_f"
	transform="scale(0.001,-0.001)" />

	<path d="M50.4,0l0,47.4c102.4,0,119.2,0,119.2,68.7l0,411c0,74.8,-13.8,84,-113.1,84l0,47.4l213.9,16.8l0,-560.7c0,-59.6,6.1,-67.2,107,-67.2L377.4,0C325.4,1.5,271.9,4.6,218.5,4.6L50.4,0ZM210.8,841.8c-45.8,0,-80.9,39.7,-80.9,81c0,38.2,30.5,81,82.5,81c45.8,0,80.9,-39.8,80.9,-81c0,-38.2,-30.5,-81,-82.5,-81Z" 
	id="f0_i"
	transform="scale(0.001,-0.001)" />

	<path d="M571.4,47.4c154.3,0,241.4,88.6,271.9,129.8c55,74.9,84.1,166.6,84.1,336.1c0,119.2,-13.8,250.6,-79.5,340.7C770,962.5,664.6,996.1,569.9,996.1l-152.8,0c-71.8,0,-74.9,-10.7,-74.9,-61.1l0,-826.5c0,-50.4,3.1,-61.1,74.9,-61.1ZM53.5,0l0,47.4l36.6,0c117.7,0,120.7,16.8,120.7,71.8l0,805.1c0,55,-3,71.8,-120.7,71.8l-36.6,0l0,47.4l559.1,0c261.3,0,467.5,-239.9,467.5,-530.2C1080.1,226.1,869.3,0,612.6,0Z" 
	id="f0_4"
	transform="scale(0.001,-0.001)" />


</defs>

<!-- Any embedded fonts defined here -->
<style type="text/css" ><![CDATA[

@font-face {
	font-family: LMMathSymbols7-Regular_n;
	src: url("fonts/LMMathSymbols7-Regular_n.woff") format("woff");
}

@font-face {
	font-family: LMRoman10-Regular_j;
	src: url("fonts/LMRoman10-Regular_j.woff") format("woff");
}

@font-face {
	font-family: LMRoman7-Regular_l;
	src: url("fonts/LMRoman7-Regular_l.woff") format("woff");
}

@font-face {
	font-family: LMMathItalic7-Regular_m;
	src: url("fonts/LMMathItalic7-Regular_m.woff") format("woff");
}

@font-face {
	font-family: LMRoman10-Regular_o;
	src: url("fonts/LMRoman10-Regular_o.woff") format("woff");
}

@font-face {
	font-family: LMMathItalic10-Regular_k;
	src: url("fonts/LMMathItalic10-Regular_k.woff") format("woff");
}

]]></style>

</svg>
