<svg width="450" height="250" xmlns="http://www.w3.org/2000/svg">
 <g>
  <title>background</title>
  <rect fill="#fff" id="canvas_background" height="252" width="452" y="-1" x="-1"/>
  <g display="none" overflow="visible" y="0" x="0" height="100%" width="100%" id="canvasGrid">
   <rect fill="url(#gridpattern)" stroke-width="0" y="0" x="0" height="100%" width="100%"/>
  </g>
 </g>
 <g>
  <title>Layer 1</title>
  <rect id="svg_1" height="200" width="450" y="0" x="0" stroke-width="1.5" stroke="#000000" fill="#2327a8"/>
  <ellipse ry="9.5" rx="9.5" id="svg_3" cy="15" cx="15" stroke-width="1.5" stroke="#000000" fill="#ffffff"/>
  <ellipse ry="9.5" rx="9.5" id="svg_5" cy="15" cx="435" stroke-width="1.5" stroke="#000000" fill="#ffffff"/>
  <ellipse ry="9.5" rx="9.5" id="svg_6" cy="185" cx="435" stroke-width="1.5" stroke="#000000" fill="#ffffff"/>
  <ellipse ry="9.5" rx="9.5" id="svg_7" cy="185" cx="15" stroke-width="1.5" stroke="#000000" fill="#ffffff"/>
  <ellipse ry="85" rx="85" id="svg_8" cy="100" cx="100" stroke-width="1.5" stroke="#000000" fill="#BBBBBB"/>
  <ellipse ry="85" rx="85" id="svg_9" cy="100" cx="350" stroke-width="1.5" stroke="#000000" fill="#BBBBBB"/>
  <ellipse ry="65" rx="65" id="svg_10" cy="100" cx="100" stroke-opacity="null" stroke-width="1.5" stroke="#000000" fill="#666666"/>
  <ellipse ry="65" rx="65" id="svg_11" cy="100" cx="350" stroke-opacity="null" stroke-width="1.5" stroke="#000000" fill="#666666"/>
  <ellipse ry="10" rx="6" id="svg_13" cy="185" cx="235" stroke-opacity="null" stroke-width="1.5" stroke="#000000" fill="#BBBBBB"/>
  <ellipse ry="10" rx="6" id="svg_14" cy="185" cx="195" stroke-opacity="null" stroke-width="1.5" stroke="#000000" fill="#BBBBBB"/>
  <ellipse ry="10" rx="6" id="svg_15" cy="185" cx="255" stroke-opacity="null" stroke-width="1.5" stroke="#000000" fill="#BBBBBB"/>
  <ellipse ry="10" rx="6" id="svg_16" cy="185" cx="215" stroke-opacity="null" stroke-width="1.5" stroke="#000000" fill="#BBBBBB"/>
  <rect id="svg_17" height="50" width="4" y="200" x="193" fill-opacity="null" stroke-opacity="null" stroke-width="1.5" stroke="#000000" fill="#BBBBBB"/>
  <rect id="svg_19" height="50" width="4" y="200" x="253" fill-opacity="null" stroke-opacity="null" stroke-width="1.5" stroke="#000000" fill="#BBBBBB"/>
  <rect id="svg_20" height="50" width="4" y="200" x="233" fill-opacity="null" stroke-opacity="null" stroke-width="1.5" stroke="#000000" fill="#BBBBBB"/>
  <rect id="svg_21" height="50" width="4" y="200" x="213" fill-opacity="null" stroke-opacity="null" stroke-width="1.5" stroke="#000000" fill="#BBBBBB"/>
  <rect id="svg_33" height="20" width="70" y="10" x="190" stroke-opacity="null" stroke-width="1.5" fill="#BBBBBB"/>
  <ellipse stroke="null" ry="10.067083" rx="10" id="svg_34" cy="20" cx="190" stroke-opacity="null" stroke-width="1.5" fill="#BBBBBB"/>
  <ellipse stroke="null" ry="10.067083" rx="10" id="svg_35" cy="20" cx="260" stroke-opacity="null" stroke-width="1.5" fill="#BBBBBB"/>
 </g>
</svg>
